<svg width="22" height="22" viewBox="0 0 22 22" fill="none" xmlns="http://www.w3.org/2000/svg">
<path d="M12.5003 20.7334L21.3003 11.9334C21.4337 11.8 21.5283 11.6556 21.5843 11.5C21.6394 11.3445 21.667 11.1778 21.667 11C21.667 10.8223 21.6394 10.6556 21.5843 10.5C21.5283 10.3445 21.4337 10.2 21.3003 10.0667L12.5003 1.26669C12.2559 1.02225 11.9505 0.894251 11.5843 0.882695C11.2172 0.872029 10.9003 1.00003 10.6337 1.26669C10.367 1.51114 10.2279 1.81647 10.2163 2.1827C10.2057 2.54981 10.3337 2.8667 10.6003 3.13336L17.1337 9.6667H2.23366C1.85588 9.6667 1.53899 9.79425 1.28299 10.0494C1.02788 10.3054 0.900324 10.6223 0.900324 11C0.900324 11.3778 1.02788 11.6943 1.28299 11.9494C1.53899 12.2054 1.85588 12.3334 2.23366 12.3334H17.1337L10.6003 18.8667C10.3559 19.1111 10.2279 19.4223 10.2163 19.8C10.2057 20.1778 10.3337 20.4889 10.6003 20.7334C10.8448 21 11.1559 21.1334 11.5337 21.1334C11.9114 21.1334 12.2337 21 12.5003 20.7334V20.7334Z" fill="white"/>
</svg>
