<svg width="70" height="70" viewBox="0 0 70 70" fill="none" xmlns="http://www.w3.org/2000/svg">
<g clip-path="url(#clip0_234_803)">
<path d="M30.2275 7.15909H39.773V10.3409H30.2275V7.15909Z" fill="#3E3D42"/>
<path d="M1.5918 35.7955H19.8873V54.8864H1.5918V35.7955Z" fill="#FCCC97"/>
<path d="M1.5918 35.7955H7.95543V40.5682H1.5918V35.7955Z" fill="#FFB655"/>
<path d="M12.7275 35.7955H19.8866V40.5682H12.7275V35.7955Z" fill="#FFB655"/>
<path d="M50.1143 35.7955H68.4097V54.8864H50.1143V35.7955Z" fill="#FCCC97"/>
<path d="M50.1143 35.7955H57.2733V40.5682H50.1143V35.7955Z" fill="#FFB655"/>
<path d="M62.0459 35.7955H68.4095V40.5682H62.0459V35.7955Z" fill="#FFB655"/>
<path d="M25.4552 7.15908L23.8643 3.97726H46.137L44.5461 7.15908H25.4552Z" fill="#57565C"/>
<path d="M1.5918 54.8864H68.41V69.2045H1.5918V54.8864Z" fill="#838289"/>
<path d="M1.5918 58.0682H68.41V66.0227H1.5918V58.0682Z" fill="#57565C"/>
<path d="M35.0007 66.0227C37.1973 66.0227 38.978 64.242 38.978 62.0454C38.978 59.8489 37.1973 58.0682 35.0007 58.0682C32.8041 58.0682 31.0234 59.8489 31.0234 62.0454C31.0234 64.242 32.8041 66.0227 35.0007 66.0227Z" fill="#3E3D42"/>
<path d="M47.7273 66.0227C49.9239 66.0227 51.7045 64.242 51.7045 62.0454C51.7045 59.8489 49.9239 58.0682 47.7273 58.0682C45.5307 58.0682 43.75 59.8489 43.75 62.0454C43.75 64.242 45.5307 66.0227 47.7273 66.0227Z" fill="#3E3D42"/>
<path d="M60.4548 66.0227C62.6514 66.0227 64.4321 64.242 64.4321 62.0454C64.4321 59.8489 62.6514 58.0682 60.4548 58.0682C58.2582 58.0682 56.4775 59.8489 56.4775 62.0454C56.4775 64.242 58.2582 66.0227 60.4548 66.0227Z" fill="#3E3D42"/>
<path d="M22.2732 66.0227C24.4698 66.0227 26.2504 64.242 26.2504 62.0454C26.2504 59.8489 24.4698 58.0682 22.2732 58.0682C20.0766 58.0682 18.2959 59.8489 18.2959 62.0454C18.2959 64.242 20.0766 66.0227 22.2732 66.0227Z" fill="#3E3D42"/>
<path d="M9.54563 66.0227C11.7422 66.0227 13.5229 64.242 13.5229 62.0454C13.5229 59.8489 11.7422 58.0682 9.54563 58.0682C7.34905 58.0682 5.56836 59.8489 5.56836 62.0454C5.56836 64.242 7.34905 66.0227 9.54563 66.0227Z" fill="#3E3D42"/>
<path d="M35.0004 64.4318C36.0986 64.4318 36.989 63.5415 36.989 62.4432C36.989 61.3449 36.0986 60.4546 35.0004 60.4546C33.9021 60.4546 33.0117 61.3449 33.0117 62.4432C33.0117 63.5415 33.9021 64.4318 35.0004 64.4318Z" fill="#282730"/>
<path d="M47.7276 63.6364C48.6063 63.6364 49.3185 62.9241 49.3185 62.0455C49.3185 61.1668 48.6063 60.4546 47.7276 60.4546C46.849 60.4546 46.1367 61.1668 46.1367 62.0455C46.1367 62.9241 46.849 63.6364 47.7276 63.6364Z" fill="#282730"/>
<path d="M60.4552 63.6364C61.3338 63.6364 62.0461 62.9241 62.0461 62.0455C62.0461 61.1668 61.3338 60.4546 60.4552 60.4546C59.5765 60.4546 58.8643 61.1668 58.8643 62.0455C58.8643 62.9241 59.5765 63.6364 60.4552 63.6364Z" fill="#282730"/>
<path d="M22.2735 63.6364C23.1522 63.6364 23.8644 62.9241 23.8644 62.0455C23.8644 61.1668 23.1522 60.4546 22.2735 60.4546C21.3949 60.4546 20.6826 61.1668 20.6826 62.0455C20.6826 62.9241 21.3949 63.6364 22.2735 63.6364Z" fill="#282730"/>
<path d="M9.54599 63.6364C10.4246 63.6364 11.1369 62.9241 11.1369 62.0455C11.1369 61.1668 10.4246 60.4546 9.54599 60.4546C8.66735 60.4546 7.95508 61.1668 7.95508 62.0455C7.95508 62.9241 8.66735 63.6364 9.54599 63.6364Z" fill="#282730"/>
<path d="M10.3414 42.1591L7.95508 43.75V35.7955H12.7278V43.75L10.3414 42.1591Z" fill="#F49227"/>
<path d="M59.6598 42.1591L57.2734 43.75V35.7955H62.0462V43.75L59.6598 42.1591Z" fill="#F49227"/>
<path d="M1.5918 0.795441H68.41V3.97726H1.5918V0.795441Z" fill="#838289"/>
<path d="M25.4551 29.4318H44.546V48.5227H25.4551V29.4318Z" fill="#FCCC97"/>
<path d="M25.4551 29.4318H32.6142V34.2046H25.4551V29.4318Z" fill="#FFB655"/>
<path d="M37.3867 29.4318H44.5458V34.2046H37.3867V29.4318Z" fill="#FFB655"/>
<path d="M35.0006 35.7955L32.6151 37.3856L32.6143 29.4318H37.387V37.3864L35.0006 35.7955Z" fill="#F49227"/>
<path d="M69.205 58.0682C69.205 57.8572 69.1212 57.6549 68.972 57.5057C68.8228 57.3565 68.6205 57.2727 68.4095 57.2727H1.59135C1.38039 57.2727 1.17806 57.3565 1.02888 57.5057C0.879705 57.6549 0.795898 57.8572 0.795898 58.0682C0.795898 58.2792 0.879705 58.4815 1.02888 58.6307C1.17806 58.7798 1.38039 58.8636 1.59135 58.8636H5.99857C5.20988 59.7357 4.77318 60.8696 4.77318 62.0455C4.77318 63.2213 5.20988 64.3552 5.99857 65.2273H1.59135C1.38039 65.2273 1.17806 65.3111 1.02888 65.4603C0.879705 65.6094 0.795898 65.8118 0.795898 66.0227C0.795898 66.2337 0.879705 66.436 1.02888 66.5852C1.17806 66.7344 1.38039 66.8182 1.59135 66.8182H68.4095C68.6205 66.8182 68.8228 66.7344 68.972 66.5852C69.1212 66.436 69.205 66.2337 69.205 66.0227C69.205 65.8118 69.1212 65.6094 68.972 65.4603C68.8228 65.3111 68.6205 65.2273 68.4095 65.2273H64.0027C64.7914 64.3552 65.2281 63.2213 65.2281 62.0455C65.2281 60.8696 64.7914 59.7357 64.0027 58.8636H68.4095C68.6205 58.8636 68.8228 58.7798 68.972 58.6307C69.1212 58.4815 69.205 58.2792 69.205 58.0682ZM19.0914 62.0455C19.0914 61.4162 19.278 60.801 19.6276 60.2777C19.9772 59.7545 20.4741 59.3467 21.0555 59.1058C21.6369 58.865 22.2767 58.802 22.8939 58.9248C23.5111 59.0476 24.0781 59.3506 24.5231 59.7956C24.968 60.2406 25.2711 60.8075 25.3939 61.4247C25.5166 62.0419 25.4536 62.6817 25.2128 63.2631C24.972 63.8445 24.5641 64.3414 24.0409 64.6911C23.5176 65.0407 22.9025 65.2273 22.2732 65.2273C21.4296 65.2265 20.6207 64.891 20.0242 64.2944C19.4277 63.6979 19.0922 62.8891 19.0914 62.0455ZM18.7258 65.2273H13.0936C13.8823 64.3552 14.319 63.2213 14.319 62.0455C14.319 60.8696 13.8823 59.7357 13.0936 58.8636H18.7262C17.9375 59.7357 17.5008 60.8696 17.5008 62.0455C17.5008 63.2213 17.9375 64.3552 18.7262 65.2273H18.7258ZM25.8205 58.8636H31.4531C30.6644 59.7357 30.2277 60.8696 30.2277 62.0455C30.2277 63.2213 30.6644 64.3552 31.4531 65.2273H25.8209C26.6096 64.3552 27.0463 63.2213 27.0463 62.0455C27.0463 60.8696 26.6096 59.7357 25.8209 58.8636H25.8205ZM31.8186 62.0455C31.8186 61.4162 32.0052 60.801 32.3549 60.2777C32.7045 59.7545 33.2014 59.3467 33.7828 59.1058C34.3642 58.865 35.004 58.802 35.6212 58.9248C36.2384 59.0476 36.8053 59.3506 37.2503 59.7956C37.6953 60.2406 37.9984 60.8075 38.1211 61.4247C38.2439 62.0419 38.1809 62.6817 37.9401 63.2631C37.6992 63.8445 37.2914 64.3414 36.7682 64.6911C36.2449 65.0407 35.6297 65.2273 35.0004 65.2273C34.1568 65.2265 33.348 64.891 32.7515 64.2944C32.1549 63.6979 31.8194 62.8891 31.8186 62.0455ZM38.5482 58.8636H44.1808C43.3921 59.7357 42.9554 60.8696 42.9554 62.0455C42.9554 63.2213 43.3921 64.3552 44.1808 65.2273H38.5482C39.3369 64.3552 39.7736 63.2213 39.7736 62.0455C39.7736 60.8696 39.3369 59.7357 38.5482 58.8636ZM44.5459 62.0455C44.5459 61.4162 44.7325 60.801 45.0821 60.2777C45.4318 59.7545 45.9287 59.3467 46.5101 59.1058C47.0915 58.865 47.7312 58.802 48.3485 58.9248C48.9657 59.0476 49.5326 59.3506 49.9776 59.7956C50.4226 60.2406 50.7256 60.8075 50.8484 61.4247C50.9712 62.0419 50.9082 62.6817 50.6673 63.2631C50.4265 63.8445 50.0187 64.3414 49.4954 64.6911C48.9722 65.0407 48.357 65.2273 47.7277 65.2273C46.8841 65.2265 46.0753 64.891 45.4787 64.2944C44.8822 63.6979 44.5467 62.8891 44.5459 62.0455ZM51.2754 58.8636H56.9081C56.1194 59.7357 55.6827 60.8696 55.6827 62.0455C55.6827 63.2213 56.1194 64.3552 56.9081 65.2273H51.2754C52.0641 64.3552 52.5008 63.2213 52.5008 62.0455C52.5008 60.8696 52.0641 59.7357 51.2754 58.8636ZM6.36408 62.0455C6.36408 61.4162 6.55069 60.801 6.90031 60.2777C7.24994 59.7545 7.74687 59.3467 8.32827 59.1058C8.90967 58.865 9.54943 58.802 10.1666 58.9248C10.7839 59.0476 11.3508 59.3506 11.7958 59.7956C12.2408 60.2406 12.5438 60.8075 12.6666 61.4247C12.7893 62.0419 12.7263 62.6817 12.4855 63.2631C12.2447 63.8445 11.8369 64.3414 11.3136 64.6911C10.7904 65.0407 10.1752 65.2273 9.5459 65.2273C8.70228 65.2265 7.89345 64.891 7.29692 64.2944C6.70039 63.6979 6.3649 62.8891 6.36408 62.0455ZM63.6368 62.0455C63.6368 62.6748 63.4502 63.2899 63.1006 63.8132C62.7509 64.3364 62.254 64.7443 61.6726 64.9851C61.0912 65.2259 60.4515 65.2889 59.8342 65.1661C59.217 65.0434 58.6501 64.7403 58.2051 64.2954C57.7601 63.8504 57.4571 63.2834 57.3343 62.6662C57.2115 62.049 57.2745 61.4092 57.5154 60.8278C57.7562 60.2464 58.164 59.7495 58.6873 59.3999C59.2105 59.0503 59.8257 58.8636 60.455 58.8636C61.2986 58.8645 62.1074 59.2 62.704 59.7965C63.3005 60.393 63.636 61.2018 63.6368 62.0455Z" fill="#19191E"/>
<path d="M35.0006 59.6591C34.5286 59.6591 34.0673 59.799 33.6748 60.0613C33.2824 60.3235 32.9765 60.6962 32.7959 61.1322C32.6153 61.5683 32.568 62.0481 32.6601 62.511C32.7522 62.9739 32.9795 63.3991 33.3132 63.7329C33.6469 64.0666 34.0722 64.2939 34.5351 64.386C34.998 64.478 35.4778 64.4308 35.9138 64.2502C36.3499 64.0695 36.7226 63.7637 36.9848 63.3712C37.247 62.9788 37.387 62.5174 37.387 62.0455C37.3863 61.4128 37.1346 60.8062 36.6873 60.3588C36.2399 59.9114 35.6333 59.6598 35.0006 59.6591ZM35.0006 62.8409C34.8433 62.8409 34.6895 62.7943 34.5587 62.7068C34.4279 62.6194 34.3259 62.4952 34.2657 62.3499C34.2055 62.2045 34.1898 62.0446 34.2205 61.8903C34.2511 61.736 34.3269 61.5942 34.4382 61.483C34.5494 61.3717 34.6911 61.296 34.8454 61.2653C34.9997 61.2346 35.1597 61.2503 35.305 61.3105C35.4504 61.3708 35.5746 61.4727 35.662 61.6035C35.7494 61.7343 35.7961 61.8881 35.7961 62.0455C35.796 62.2564 35.7121 62.4586 35.563 62.6078C35.4138 62.7569 35.2116 62.8408 35.0006 62.8409Z" fill="#19191E"/>
<path d="M47.7282 59.6591C47.2562 59.6591 46.7948 59.799 46.4024 60.0613C46.0099 60.3235 45.7041 60.6962 45.5235 61.1322C45.3428 61.5683 45.2956 62.0481 45.3877 62.511C45.4797 62.9739 45.707 63.3991 46.0407 63.7329C46.3745 64.0666 46.7997 64.2939 47.2626 64.386C47.7255 64.478 48.2053 64.4308 48.6414 64.2502C49.0774 64.0695 49.4501 63.7637 49.7123 63.3712C49.9746 62.9788 50.1145 62.5174 50.1145 62.0455C50.1138 61.4128 49.8622 60.8062 49.4148 60.3588C48.9674 59.9114 48.3609 59.6598 47.7282 59.6591ZM47.7282 62.8409C47.5708 62.8409 47.417 62.7943 47.2862 62.7068C47.1554 62.6194 47.0535 62.4952 46.9933 62.3499C46.9331 62.2045 46.9173 62.0446 46.948 61.8903C46.9787 61.736 47.0544 61.5942 47.1657 61.483C47.2769 61.3717 47.4187 61.296 47.573 61.2653C47.7273 61.2346 47.8872 61.2503 48.0326 61.3105C48.1779 61.3708 48.3022 61.4727 48.3896 61.6035C48.477 61.7343 48.5236 61.8881 48.5236 62.0455C48.5235 62.2564 48.4396 62.4586 48.2905 62.6078C48.1413 62.7569 47.9391 62.8408 47.7282 62.8409Z" fill="#19191E"/>
<path d="M60.4547 64.4318C60.9267 64.4318 61.3881 64.2919 61.7805 64.0296C62.173 63.7674 62.4788 63.3947 62.6594 62.9587C62.8401 62.5226 62.8873 62.0428 62.7952 61.5799C62.7032 61.117 62.4759 60.6918 62.1421 60.358C61.8084 60.0243 61.3832 59.797 60.9203 59.7049C60.4574 59.6129 59.9776 59.6601 59.5415 59.8407C59.1055 60.0214 58.7328 60.3272 58.4705 60.7197C58.2083 61.1121 58.0684 61.5735 58.0684 62.0455C58.0691 62.6781 58.3207 63.2847 58.7681 63.7321C59.2155 64.1795 59.822 64.4311 60.4547 64.4318ZM60.4547 61.25C60.612 61.25 60.7658 61.2967 60.8967 61.3841C61.0275 61.4715 61.1294 61.5957 61.1896 61.741C61.2498 61.8864 61.2656 62.0463 61.2349 62.2006C61.2042 62.3549 61.1284 62.4967 61.0172 62.6079C60.9059 62.7192 60.7642 62.7949 60.6099 62.8256C60.4556 62.8563 60.2957 62.8406 60.1503 62.7804C60.005 62.7202 59.8807 62.6182 59.7933 62.4874C59.7059 62.3566 59.6593 62.2028 59.6593 62.0455C59.6594 61.8345 59.7432 61.6323 59.8924 61.4831C60.0415 61.334 60.2438 61.2501 60.4547 61.25Z" fill="#19191E"/>
<path d="M22.2731 59.6591C21.8011 59.6591 21.3397 59.799 20.9473 60.0613C20.5549 60.3235 20.249 60.6962 20.0684 61.1322C19.8878 61.5683 19.8405 62.0481 19.9326 62.511C20.0247 62.9739 20.2519 63.3991 20.5857 63.7329C20.9194 64.0666 21.3446 64.2939 21.8075 64.386C22.2704 64.478 22.7503 64.4308 23.1863 64.2502C23.6224 64.0695 23.9951 63.7637 24.2573 63.3712C24.5195 62.9788 24.6594 62.5174 24.6594 62.0455C24.6588 61.4128 24.4071 60.8062 23.9597 60.3588C23.5124 59.9114 22.9058 59.6598 22.2731 59.6591ZM22.2731 62.8409C22.1158 62.8409 21.962 62.7943 21.8312 62.7068C21.7003 62.6194 21.5984 62.4952 21.5382 62.3499C21.478 62.2045 21.4622 62.0446 21.4929 61.8903C21.5236 61.736 21.5994 61.5942 21.7106 61.483C21.8219 61.3717 21.9636 61.296 22.1179 61.2653C22.2722 61.2346 22.4321 61.2503 22.5775 61.3105C22.7228 61.3708 22.8471 61.4727 22.9345 61.6035C23.0219 61.7343 23.0685 61.8881 23.0685 62.0455C23.0684 62.2564 22.9846 62.4586 22.8354 62.6078C22.6863 62.7569 22.484 62.8408 22.2731 62.8409Z" fill="#19191E"/>
<path d="M9.54554 59.6591C9.07357 59.6591 8.61219 59.799 8.21975 60.0613C7.82732 60.3235 7.52145 60.6962 7.34083 61.1322C7.16021 61.5683 7.11296 62.0481 7.20503 62.511C7.29711 62.9739 7.52439 63.3991 7.85813 63.7329C8.19187 64.0666 8.61708 64.2939 9.07999 64.386C9.5429 64.478 10.0227 64.4308 10.4588 64.2502C10.8948 64.0695 11.2675 63.7637 11.5297 63.3712C11.792 62.9788 11.9319 62.5174 11.9319 62.0455C11.9312 61.4128 11.6796 60.8062 11.2322 60.3588C10.7848 59.9114 10.1782 59.6598 9.54554 59.6591ZM9.54554 62.8409C9.38822 62.8409 9.23443 62.7943 9.10361 62.7068C8.9728 62.6194 8.87085 62.4952 8.81064 62.3499C8.75043 62.2045 8.73468 62.0446 8.76537 61.8903C8.79607 61.736 8.87183 61.5942 8.98307 61.483C9.09432 61.3717 9.23606 61.296 9.39036 61.2653C9.54466 61.2346 9.7046 61.2503 9.84995 61.3105C9.9953 61.3708 10.1195 61.4727 10.2069 61.6035C10.2943 61.7343 10.341 61.8881 10.341 62.0455C10.3409 62.2564 10.257 62.4586 10.1079 62.6078C9.95873 62.7569 9.75647 62.8408 9.54554 62.8409Z" fill="#19191E"/>
<path d="M68.4095 68.4091H1.59135C1.38039 68.4091 1.17806 68.4929 1.02888 68.6421C0.879705 68.7912 0.795898 68.9936 0.795898 69.2045C0.795898 69.4155 0.879705 69.6178 1.02888 69.767C1.17806 69.9162 1.38039 70 1.59135 70H68.4095C68.6205 70 68.8228 69.9162 68.972 69.767C69.1212 69.6178 69.205 69.4155 69.205 69.2045C69.205 68.9936 69.1212 68.7912 68.972 68.6421C68.8228 68.4929 68.6205 68.4091 68.4095 68.4091Z" fill="#19191E"/>
<path d="M1.59135 1.59091H68.4095C68.6205 1.59091 68.8228 1.5071 68.972 1.35793C69.1212 1.20875 69.205 1.00642 69.205 0.795455C69.205 0.584487 69.1212 0.38216 68.972 0.232983C68.8228 0.0838066 68.6205 0 68.4095 0L1.59135 0C1.38039 0 1.17806 0.0838066 1.02888 0.232983C0.879705 0.38216 0.795898 0.584487 0.795898 0.795455C0.795898 1.00642 0.879705 1.20875 1.02888 1.35793C1.17806 1.5071 1.38039 1.59091 1.59135 1.59091Z" fill="#19191E"/>
<path d="M68.4095 3.18182H1.59135C1.38039 3.18182 1.17806 3.26563 1.02888 3.41481C0.879705 3.56398 0.795898 3.76631 0.795898 3.97728C0.795898 4.18825 0.879705 4.39057 1.02888 4.53975C1.17806 4.68893 1.38039 4.77273 1.59135 4.77273H23.3723L24.7435 7.5149C24.8095 7.64703 24.9111 7.75814 25.0368 7.8358C25.1624 7.91345 25.3073 7.95457 25.455 7.95455H29.4323V10.3409C29.4323 10.5519 29.5161 10.7542 29.6652 10.9034C29.8144 11.0526 30.0167 11.1364 30.2277 11.1364H34.205V15.9091C34.205 16.1201 34.2888 16.3224 34.438 16.4716C34.5871 16.6207 34.7895 16.7046 35.0004 16.7046C35.4724 16.7046 35.9338 16.8445 36.3262 17.1067C36.7187 17.3689 37.0245 17.7416 37.2052 18.1777C37.3858 18.6137 37.433 19.0936 37.341 19.5565C37.2489 20.0194 37.0216 20.4446 36.6879 20.7783C36.3541 21.1121 35.9289 21.3393 35.466 21.4314C35.0031 21.5235 34.5233 21.4762 34.0872 21.2956C33.6512 21.115 33.2785 20.8091 33.0163 20.4167C32.754 20.0243 32.6141 19.5629 32.6141 19.0909C32.6141 18.8799 32.5303 18.6776 32.3811 18.5284C32.2319 18.3793 32.0296 18.2955 31.8186 18.2955C31.6077 18.2955 31.4053 18.3793 31.2562 18.5284C31.107 18.6776 31.0232 18.8799 31.0232 19.0909C31.0258 19.9111 31.2823 20.7103 31.7574 21.3788C32.2325 22.0473 32.903 22.5523 33.6766 22.8245L29.802 28.6364H25.455C25.244 28.6364 25.0417 28.7202 24.8925 28.8694C24.7433 29.0185 24.6595 29.2209 24.6595 29.4318V48.5227C24.6595 48.7337 24.7433 48.936 24.8925 49.0852C25.0417 49.2344 25.244 49.3182 25.455 49.3182H44.5459C44.7569 49.3182 44.9592 49.2344 45.1084 49.0852C45.2575 48.936 45.3414 48.7337 45.3414 48.5227V29.4318C45.3414 29.2209 45.2575 29.0185 45.1084 28.8694C44.9592 28.7202 44.7569 28.6364 44.5459 28.6364H40.1989L36.3242 22.8245C37.144 22.5369 37.8467 21.9881 38.3244 21.2625C38.8021 20.5368 39.0283 19.6744 38.9683 18.8077C38.9082 17.941 38.5653 17.118 37.9922 16.4651C37.4191 15.8122 36.6475 15.3655 35.7959 15.1937V11.1364H39.7732C39.9841 11.1364 40.1865 11.0526 40.3356 10.9034C40.4848 10.7542 40.5686 10.5519 40.5686 10.3409V7.95455H44.5459C44.6936 7.95457 44.8384 7.91345 44.9641 7.8358C45.0898 7.75814 45.1914 7.64703 45.2574 7.5149L46.6286 4.77273H68.4095C68.6205 4.77273 68.8228 4.68893 68.972 4.53975C69.1212 4.39057 69.205 4.18825 69.205 3.97728C69.205 3.76631 69.1212 3.56398 68.972 3.41481C68.8228 3.26563 68.6205 3.18182 68.4095 3.18182ZM26.2504 30.2273H31.8186V33.4091H26.2504V30.2273ZM36.5914 30.2273V35.9003L35.4417 35.1336C35.311 35.0465 35.1575 35 35.0004 35C34.8434 35 34.6899 35.0465 34.5592 35.1336L33.4095 35.9003V30.2273H36.5914ZM26.2504 47.7273V35H31.8186V37.3864C31.8186 37.5303 31.8577 37.6716 31.9317 37.7951C32.0057 37.9186 32.1118 38.0197 32.2388 38.0877C32.3657 38.1556 32.5087 38.1878 32.6525 38.1809C32.7963 38.1739 32.9355 38.1281 33.0553 38.0482L35.0004 36.7517L36.9456 38.0483C37.0654 38.1281 37.2046 38.174 37.3484 38.1809C37.4922 38.1879 37.6352 38.1557 37.7622 38.0877C37.8891 38.0198 37.9952 37.9187 38.0692 37.7952C38.1432 37.6716 38.1823 37.5303 38.1823 37.3864V35H43.7504V47.7273H26.2504ZM43.7504 33.4091H38.1823V30.2273H43.7504V33.4091ZM31.714 28.6364L35.0004 23.7067L38.2869 28.6364H31.714ZM38.9777 9.54546H31.0232V7.95455H38.9777V9.54546ZM44.0541 6.36364H25.9467L25.1513 4.77273H44.8496L44.0541 6.36364Z" fill="#19191E"/>
<path d="M68.4095 36.5909C68.6205 36.5909 68.8228 36.5071 68.972 36.3579C69.1212 36.2087 69.205 36.0064 69.205 35.7955C69.205 35.5845 69.1212 35.3822 68.972 35.233C68.8228 35.0838 68.6205 35 68.4095 35H50.1141C49.9031 35 49.7008 35.0838 49.5516 35.233C49.4024 35.3822 49.3186 35.5845 49.3186 35.7955V54.0909H20.6823V35.7955C20.6823 35.5845 20.5985 35.3822 20.4493 35.233C20.3001 35.0838 20.0978 35 19.8868 35H1.59135C1.38039 35 1.17806 35.0838 1.02888 35.233C0.879705 35.3822 0.795898 35.5845 0.795898 35.7955C0.795898 36.0064 0.879705 36.2087 1.02888 36.3579C1.17806 36.5071 1.38039 36.5909 1.59135 36.5909H7.15953V39.7727H1.59135C1.38039 39.7727 1.17806 39.8565 1.02888 40.0057C0.879705 40.1549 0.795898 40.3572 0.795898 40.5682C0.795898 40.7792 0.879705 40.9815 1.02888 41.1307C1.17806 41.2798 1.38039 41.3636 1.59135 41.3636H7.15953V43.75C7.15954 43.894 7.19862 44.0352 7.27261 44.1588C7.3466 44.2823 7.45273 44.3834 7.57966 44.4513C7.7066 44.5192 7.8496 44.5514 7.99341 44.5445C8.13721 44.5375 8.27643 44.4917 8.39623 44.4118L10.3414 43.1153L12.2865 44.4119C12.4063 44.4918 12.5455 44.5376 12.6893 44.5446C12.8331 44.5515 12.9761 44.5193 13.1031 44.4514C13.23 44.3834 13.3361 44.2823 13.4101 44.1588C13.4841 44.0353 13.5232 43.894 13.5232 43.75V41.3636H19.0914V54.0909H1.59135C1.38039 54.0909 1.17806 54.1747 1.02888 54.3239C0.879705 54.4731 0.795898 54.6754 0.795898 54.8864C0.795898 55.0973 0.879705 55.2997 1.02888 55.4488C1.17806 55.598 1.38039 55.6818 1.59135 55.6818H68.4095C68.6205 55.6818 68.8228 55.598 68.972 55.4488C69.1212 55.2997 69.205 55.0973 69.205 54.8864C69.205 54.6754 69.1212 54.4731 68.972 54.3239C68.8228 54.1747 68.6205 54.0909 68.4095 54.0909H50.9095V41.3636H56.4777V43.75C56.4777 43.894 56.5168 44.0352 56.5908 44.1588C56.6648 44.2823 56.7709 44.3834 56.8978 44.4513C57.0248 44.5192 57.1678 44.5514 57.3116 44.5445C57.4554 44.5375 57.5946 44.4917 57.7144 44.4118L59.6595 43.1153L61.6047 44.4119C61.7245 44.4918 61.8637 44.5376 62.0075 44.5446C62.1513 44.5515 62.2943 44.5193 62.4213 44.4514C62.5482 44.3834 62.6543 44.2823 62.7283 44.1588C62.8023 44.0353 62.8414 43.894 62.8414 43.75V41.3636H68.4095C68.6205 41.3636 68.8228 41.2798 68.972 41.1307C69.1212 40.9815 69.205 40.7792 69.205 40.5682C69.205 40.3572 69.1212 40.1549 68.972 40.0057C68.8228 39.8565 68.6205 39.7727 68.4095 39.7727H62.8414V36.5909H68.4095ZM11.9323 42.2639L10.7826 41.4973C10.6519 41.4102 10.4984 41.3637 10.3414 41.3637C10.1843 41.3637 10.0308 41.4102 9.90011 41.4973L8.75044 42.2639V36.5909H11.9323V42.2639ZM13.5232 39.7727V36.5909H19.0914V39.7727H13.5232ZM50.9095 39.7727V36.5909H56.4777V39.7727H50.9095ZM61.2504 42.2639L60.1008 41.4973C59.9701 41.4102 59.8166 41.3637 59.6595 41.3637C59.5025 41.3637 59.349 41.4102 59.2183 41.4973L58.0686 42.2639V36.5909H61.2504V42.2639Z" fill="#19191E"/>
</g>
<defs>
<clipPath id="clip0_234_803">
<rect width="70" height="70" fill="white"/>
</clipPath>
</defs>
</svg>
