<svg width="70" height="70" viewBox="0 0 70 70" fill="none" xmlns="http://www.w3.org/2000/svg">
<g clip-path="url(#clip0_234_564)">
<path d="M60.2734 6.17609H20.7307C20.0203 6.17802 19.3397 6.46158 18.838 6.96459C18.3364 7.4676 18.0547 8.14902 18.0547 8.85942V66.5876C18.0547 67.298 18.3364 67.9794 18.838 68.4824C19.3397 68.9854 20.0203 69.269 20.7307 69.2709H60.2734C60.9838 69.269 61.6645 68.9854 62.1661 68.4824C62.6678 67.9794 62.9495 67.298 62.9495 66.5876V8.85942C62.9495 8.14902 62.6678 7.4676 62.1661 6.96459C61.6645 6.46158 60.9838 6.17802 60.2734 6.17609ZM59.063 65.399H21.9266V10.048H59.063V65.399Z" fill="#3E5295"/>
<path d="M21.9266 23.9386V10.0844H59.063V23.9386H62.9349V8.85942C62.9349 8.14902 62.6532 7.4676 62.1515 6.96459C61.6499 6.46158 60.9693 6.17802 60.2589 6.17609H20.7307C20.0203 6.17802 19.3397 6.46158 18.838 6.96459C18.3364 7.4676 18.0547 8.14902 18.0547 8.85942V23.9386H21.9266Z" fill="#ACBADF"/>
<path d="M28.708 6.17609H52.282V10.048H28.708V6.17609Z" fill="#3E5295"/>
<path d="M45.7188 65.399H57.8083V69.2709H45.7188V65.399Z" fill="#3E5295"/>
<path d="M21.9268 10.0479H59.0778V65.399H21.9268V10.0479Z" fill="#E8EFFF"/>
<path d="M24.8428 12.9646H56.1605V62.4823H24.8428V12.9646Z" fill="#E8EFFF"/>
<path d="M50.7135 5.83336V9.07086C50.7145 9.19438 50.6911 9.31689 50.6447 9.43138C50.5983 9.54587 50.5298 9.6501 50.4432 9.73812C50.3565 9.82615 50.2533 9.89623 50.1396 9.94439C50.0258 9.99254 49.9037 10.0178 49.7802 10.0188H31.2302C31.1054 10.0197 30.9817 9.99589 30.8663 9.94859C30.7508 9.9013 30.6459 9.83151 30.5577 9.7433C30.4695 9.65508 30.3997 9.5502 30.3524 9.43475C30.3051 9.31931 30.2813 9.19561 30.2823 9.07086V5.83336C30.2813 5.7086 30.3051 5.5849 30.3524 5.46946C30.3997 5.35401 30.4695 5.24913 30.5577 5.16091C30.6459 5.0727 30.7508 5.00291 30.8663 4.95562C30.9817 4.90832 31.1054 4.88447 31.2302 4.88544H34.1468C34.7608 4.8722 35.3454 4.62044 35.7769 4.18352C36.2083 3.7466 36.4528 3.15885 36.4583 2.54481V1.72086C36.4582 1.58814 36.4848 1.45676 36.5365 1.3345C36.5881 1.21225 36.6638 1.1016 36.759 1.00912C36.8542 0.916648 36.967 0.844221 37.0907 0.796136C37.2144 0.748051 37.3465 0.725285 37.4791 0.729189H43.5312C43.6611 0.729185 43.7897 0.754886 43.9096 0.804811C44.0295 0.854736 44.1384 0.927897 44.2299 1.02008C44.3214 1.11226 44.3937 1.22164 44.4428 1.34191C44.4918 1.46218 44.5166 1.59097 44.5156 1.72086V2.54481C44.5175 3.17273 44.7678 3.77438 45.2118 4.21839C45.6558 4.66239 46.2575 4.91268 46.8854 4.91461H49.802C50.0427 4.92201 50.2713 5.0214 50.4409 5.19232C50.6105 5.36324 50.708 5.59266 50.7135 5.83336Z" fill="#7481A9"/>
<path d="M50.7135 5.83336V7.66356C50.7135 7.91178 50.6154 8.14993 50.4406 8.32612C50.2658 8.50232 50.0284 8.60226 49.7802 8.60419H31.2302C31.106 8.60515 30.9829 8.58153 30.868 8.53469C30.753 8.48785 30.6485 8.41872 30.5603 8.33128C30.4722 8.24384 30.4023 8.13982 30.3545 8.02522C30.3068 7.91062 30.2823 7.7877 30.2823 7.66356V5.83336C30.2813 5.7086 30.3051 5.5849 30.3524 5.46946C30.3997 5.35401 30.4695 5.24913 30.5577 5.16091C30.6459 5.0727 30.7508 5.00291 30.8663 4.95562C30.9817 4.90832 31.1054 4.88447 31.2302 4.88544H34.1468C34.7608 4.8722 35.3454 4.62044 35.7769 4.18352C36.2083 3.7466 36.4528 3.15885 36.4583 2.54481V1.72086C36.4582 1.58814 36.4848 1.45676 36.5365 1.3345C36.5881 1.21225 36.6638 1.1016 36.759 1.00912C36.8542 0.916648 36.967 0.844221 37.0907 0.796136C37.2144 0.748051 37.3465 0.725285 37.4791 0.729189H43.5312C43.6611 0.729185 43.7897 0.754886 43.9096 0.804811C44.0295 0.854736 44.1384 0.927897 44.2299 1.02008C44.3214 1.11226 44.3937 1.22164 44.4428 1.34191C44.4918 1.46218 44.5166 1.59097 44.5156 1.72086V2.54481C44.5175 3.17273 44.7678 3.77438 45.2118 4.21839C45.6558 4.66239 46.2575 4.91268 46.8854 4.91461H49.802C50.0427 4.92201 50.2713 5.0214 50.4409 5.19232C50.6105 5.36324 50.708 5.59266 50.7135 5.83336Z" fill="#889FC2"/>
<path d="M39.9804 38.2886H26.1335C25.6785 38.2886 25.3096 38.6575 25.3096 39.1125V52.9594C25.3096 53.4145 25.6785 53.7834 26.1335 53.7834H39.9804C40.4355 53.7834 40.8044 53.4145 40.8044 52.9594V39.1125C40.8044 38.6575 40.4355 38.2886 39.9804 38.2886Z" fill="#FF9D50"/>
<path d="M39.6524 39.324V51.2532C39.6753 51.4987 39.6023 51.7437 39.4487 51.9366C39.2951 52.1296 39.0729 52.2558 38.8284 52.2886H27.6576C27.4115 52.2593 27.187 52.1341 27.0327 51.9403C26.8785 51.7464 26.8069 51.4995 26.8336 51.2532V39.324C26.8069 39.0777 26.8785 38.8308 27.0327 38.6369C27.187 38.443 27.4115 38.3179 27.6576 38.2886H38.8284C39.0729 38.3214 39.2951 38.4475 39.4487 38.6405C39.6023 38.8335 39.6753 39.0784 39.6524 39.324Z" fill="#FFB15F"/>
<path d="M39.6524 39.7542V39.324C39.6753 39.0784 39.6023 38.8335 39.4487 38.6405C39.2951 38.4475 39.0729 38.3214 38.8284 38.2886H27.6576C27.4115 38.3179 27.187 38.443 27.0327 38.6369C26.8785 38.8308 26.8069 39.0777 26.8336 39.324V39.7542H39.6524Z" fill="#FFDE82"/>
<path d="M30.3916 38.2886H35.7218V44.4646H30.3916V38.2886Z" fill="#FF703C"/>
<path d="M30.3916 38.2886H35.7218V39.7615H30.3916V38.2886Z" fill="#FF8941"/>
<path d="M52.6464 53.7761H38.7995C38.3445 53.7761 37.9756 54.145 37.9756 54.6V68.4469C37.9756 68.902 38.3445 69.2709 38.7995 69.2709H52.6464C53.1015 69.2709 53.4704 68.902 53.4704 68.4469V54.6C53.4704 54.145 53.1015 53.7761 52.6464 53.7761Z" fill="#FFCA87"/>
<path d="M50.4006 56.2917H41.0454C40.7393 56.2917 40.4912 56.5398 40.4912 56.8459V66.2011C40.4912 66.5071 40.7393 66.7552 41.0454 66.7552H50.4006C50.7066 66.7552 50.9548 66.5071 50.9548 66.2011V56.8459C50.9548 56.5398 50.7066 56.2917 50.4006 56.2917Z" fill="#FFE8AA"/>
<path d="M53.463 55.1396V54.6C53.463 54.3815 53.3762 54.1719 53.2217 54.0174C53.0672 53.8629 52.8576 53.7761 52.6391 53.7761H38.7849C38.5664 53.7761 38.3568 53.8629 38.2023 54.0174C38.0477 54.1719 37.9609 54.3815 37.9609 54.6V55.1396H53.463Z" fill="#FFB17D"/>
<path d="M43.0576 53.7761H48.3878V59.9521H43.0576V53.7761Z" fill="#FFA769"/>
<path d="M43.0576 56.2917H48.3878V59.9521H43.0576V56.2917Z" fill="#FFC582"/>
<path d="M43.0576 53.7761H48.3878V55.1396H43.0576V53.7761Z" fill="#FF8E5F"/>
<path d="M37.1513 53.7761H23.3044C22.8494 53.7761 22.4805 54.145 22.4805 54.6V68.4469C22.4805 68.902 22.8494 69.2709 23.3044 69.2709H37.1513C37.6064 69.2709 37.9753 68.902 37.9753 68.4469V54.6C37.9753 54.145 37.6064 53.7761 37.1513 53.7761Z" fill="#FFC050"/>
<path d="M37.9754 55.1396V54.6C37.9738 54.3882 37.8915 54.185 37.7451 54.0318C37.5987 53.8787 37.3994 53.7872 37.1879 53.7761H23.3337C23.1158 53.778 22.9073 53.8654 22.7532 54.0195C22.5991 54.1736 22.5117 54.3821 22.5098 54.6V55.1396H37.9754Z" fill="#FF9350"/>
<path d="M34.9055 56.2917H25.5503C25.2442 56.2917 24.9961 56.5398 24.9961 56.8459V66.2011C24.9961 66.5071 25.2442 66.7552 25.5503 66.7552H34.9055C35.2115 66.7552 35.4596 66.5071 35.4596 66.2011V56.8459C35.4596 56.5398 35.2115 56.2917 34.9055 56.2917Z" fill="#FFC050"/>
<path d="M27.5625 53.7761H32.8927V59.9521H27.5625V53.7761Z" fill="#FF9350"/>
<path d="M27.5625 56.2917H32.8927V59.9521H27.5625V56.2917Z" fill="#FFC050"/>
<path d="M27.5625 53.7761H32.8927V55.1323H27.5625V53.7761Z" fill="#CD523C"/>
<path d="M21.6562 53.7761H7.80931C7.35425 53.7761 6.98535 54.145 6.98535 54.6V68.4469C6.98535 68.902 7.35425 69.2709 7.80931 69.2709H21.6562C22.1112 69.2709 22.4801 68.902 22.4801 68.4469V54.6C22.4801 54.145 22.1112 53.7761 21.6562 53.7761Z" fill="#FF9D50"/>
<path d="M22.4806 55.1396V54.6C22.4787 54.3821 22.3913 54.1736 22.2372 54.0195C22.0831 53.8654 21.8746 53.778 21.6566 53.7761H7.80247C7.58454 53.778 7.37606 53.8654 7.22195 54.0195C7.06784 54.1736 6.98042 54.3821 6.97852 54.6V55.1396H22.4806Z" fill="#F06B41"/>
<path d="M19.4104 56.2917H10.0551C9.74909 56.2917 9.50098 56.5398 9.50098 56.8459V66.2011C9.50098 66.5071 9.74909 66.7552 10.0551 66.7552H19.4104C19.7164 66.7552 19.9645 66.5071 19.9645 66.2011V56.8459C19.9645 56.5398 19.7164 56.2917 19.4104 56.2917Z" fill="#FFB15F"/>
<path d="M12.0684 53.7761H17.3986V59.9521H12.0684V53.7761Z" fill="#FF703C"/>
<path d="M12.0684 53.7761H17.3986V55.1323H12.0684V53.7761Z" fill="#CD523C"/>
<path d="M12.0684 56.2917H17.3986V59.9521H12.0684V56.2917Z" fill="#FF8941"/>
<path d="M24.4853 38.2886H10.6384C10.1834 38.2886 9.81445 38.6575 9.81445 39.1125V52.9594C9.81445 53.4145 10.1834 53.7834 10.6384 53.7834H24.4853C24.9403 53.7834 25.3092 53.4145 25.3092 52.9594V39.1125C25.3092 38.6575 24.9403 38.2886 24.4853 38.2886Z" fill="#FFC050"/>
<path d="M23.9097 39.324V51.2532C23.9345 51.4991 23.8622 51.745 23.7083 51.9384C23.5544 52.1319 23.331 52.2575 23.0858 52.2886H11.9222C11.6762 52.2593 11.4517 52.1341 11.2974 51.9403C11.1431 51.7464 11.0716 51.4995 11.0983 51.2532V39.324C11.0716 39.0777 11.1431 38.8308 11.2974 38.6369C11.4517 38.443 11.6762 38.3179 11.9222 38.2886H23.0858C23.331 38.3197 23.5544 38.4453 23.7083 38.6387C23.8622 38.8321 23.9345 39.078 23.9097 39.324Z" fill="#FFD469"/>
<path d="M14.8975 38.2886H20.2277V44.4646H14.8975V38.2886Z" fill="#FF9350"/>
<path d="M23.9097 39.7542V39.324C23.9345 39.078 23.8622 38.8321 23.7083 38.6387C23.5544 38.4453 23.331 38.3197 23.0858 38.2886H11.9222C11.6762 38.3179 11.4517 38.443 11.2974 38.6369C11.1431 38.8308 11.0716 39.0777 11.0983 39.324V39.7542H23.9097Z" fill="#FFFACD"/>
<path d="M14.9268 38.2886H20.2278V39.7615H14.9268V38.2886Z" fill="#FFC050"/>
<path d="M60.2732 5.44689H51.3919C51.3025 5.08703 51.0953 4.7674 50.8033 4.53883C50.5113 4.31026 50.1513 4.18587 49.7805 4.18543H46.8638C46.4293 4.18352 46.0131 4.01005 45.7058 3.70279C45.3986 3.39552 45.2251 2.97934 45.2232 2.54481V1.72085C45.2233 1.26947 45.046 0.836127 44.7295 0.514234C44.4131 0.192341 43.9828 0.00766717 43.5315 1.65828e-05H37.4794C37.2513 -0.00287374 37.0248 0.03945 36.8131 0.124545C36.6014 0.20964 36.4086 0.335822 36.2459 0.495809C36.0832 0.655796 35.9538 0.846419 35.8652 1.05668C35.7765 1.26694 35.7304 1.49267 35.7294 1.72085V2.54481C35.7294 2.97993 35.5566 3.39723 35.2489 3.70491C34.9412 4.01258 34.5239 4.18543 34.0888 4.18543H31.1722C30.8092 4.19665 30.4598 4.32587 30.1769 4.5535C29.8941 4.78113 29.6931 5.09477 29.6044 5.44689H20.7305C19.8267 5.44882 18.9606 5.80921 18.3222 6.44896C17.6838 7.08872 17.3253 7.9556 17.3253 8.85939V37.5594H10.6972C10.271 37.5613 9.86302 37.732 9.56239 38.034C9.26176 38.3359 9.09298 38.7447 9.09299 39.1709V53.025H7.93361C7.71759 53.0259 7.50391 53.0699 7.30507 53.1543C7.10622 53.2387 6.92619 53.3619 6.77548 53.5167C6.62478 53.6715 6.50643 53.8547 6.42734 54.0558C6.34825 54.2568 6.31002 54.4716 6.31486 54.6875V68.3886C6.31679 68.8166 6.48819 69.2265 6.79155 69.5285C7.09492 69.8305 7.50555 70 7.93361 70H60.2732C61.1777 69.9981 62.0445 69.6379 62.6841 68.9984C63.3236 68.3588 63.6838 67.492 63.6857 66.5875V8.85939C63.6838 7.95493 63.3236 7.08807 62.6841 6.44852C62.0445 5.80897 61.1777 5.44882 60.2732 5.44689ZM37.1878 2.54481V1.72085C37.1886 1.68412 37.197 1.64795 37.2124 1.61457C37.2277 1.58119 37.2497 1.55129 37.277 1.52671C37.3043 1.50213 37.3364 1.48339 37.3712 1.47164C37.406 1.45988 37.4428 1.45536 37.4794 1.45835H43.5315C43.5657 1.45834 43.5995 1.46517 43.6309 1.47845C43.6624 1.49173 43.6908 1.51118 43.7146 1.53566C43.7384 1.56013 43.7571 1.58914 43.7694 1.62095C43.7818 1.65276 43.7877 1.68673 43.7867 1.72085V2.54481C43.7854 3.181 43.98 3.80218 44.3439 4.32398C44.7079 4.84578 45.2236 5.24293 45.8211 5.46148C46.4774 5.72398 46.7107 5.65835 49.7805 5.65835C49.8359 5.66206 49.8879 5.68673 49.9258 5.72736C49.9637 5.76799 49.9848 5.82153 49.9847 5.8771V9.1146C49.9856 9.14237 49.9811 9.17007 49.9714 9.1961C49.9616 9.22213 49.9469 9.24598 49.9279 9.2663C49.9089 9.28661 49.8862 9.30299 49.8609 9.3145C49.8356 9.326 49.8083 9.33241 49.7805 9.33335H31.2305C31.2015 9.33437 31.1726 9.32941 31.1456 9.31878C31.1186 9.30814 31.0941 9.29207 31.0735 9.27155C31.053 9.25103 31.0369 9.2265 31.0263 9.1995C31.0157 9.1725 31.0107 9.1436 31.0117 9.1146V5.83335C31.0117 5.77533 31.0348 5.71969 31.0758 5.67867C31.1168 5.63765 31.1725 5.6146 31.2305 5.6146H34.1472C34.9533 5.59762 35.7212 5.26784 36.2886 4.69498C36.8561 4.12212 37.1785 3.35107 37.1878 2.54481ZM52.6315 53.0469H41.5628C41.5628 52.9594 41.5628 53.8198 41.5628 39.1927C41.5618 38.9802 41.519 38.7698 41.4368 38.5738C41.3545 38.3778 41.2345 38.1999 41.0835 38.0502C40.9325 37.9006 40.7535 37.7822 40.5568 37.7017C40.36 37.6212 40.1493 37.5803 39.9367 37.5813C24.8357 37.5813 25.893 37.4865 25.3534 37.8511C25.09 37.6753 24.7805 37.5814 24.4638 37.5813H22.6555V10.7771H58.3336V64.6698H54.2503V54.6875C54.2532 54.4731 54.2134 54.2603 54.1334 54.0613C54.0533 53.8624 53.9346 53.6814 53.784 53.5287C53.6334 53.3761 53.4539 53.2549 53.2561 53.1722C53.0583 53.0895 52.846 53.0469 52.6315 53.0469ZM47.7097 54.5052V59.2229H43.8378V54.5125L47.7097 54.5052ZM26.1919 53.0469C26.1718 53.0469 26.1519 53.0429 26.1333 53.0352C26.1148 53.0275 26.0979 53.0163 26.0837 53.002C26.0695 52.9878 26.0582 52.9709 26.0505 52.9524C26.0428 52.9338 26.0388 52.9139 26.0388 52.8938V39.1709C26.0388 39.1507 26.0428 39.1308 26.0505 39.1123C26.0582 39.0937 26.0695 39.0768 26.0837 39.0626C26.0979 39.0484 26.1148 39.0371 26.1333 39.0294C26.1519 39.0217 26.1718 39.0177 26.1919 39.0177H29.6628V44.4792C29.6628 44.6726 29.7396 44.858 29.8763 44.9948C30.0131 45.1315 30.1986 45.2084 30.3919 45.2084H35.7294C35.9228 45.2084 36.1083 45.1315 36.245 44.9948C36.3818 44.858 36.4586 44.6726 36.4586 44.4792V39.0177H39.9222C39.9432 39.0168 39.9643 39.0199 39.9841 39.0271C40.004 39.0343 40.0222 39.0453 40.0378 39.0595C40.0533 39.0737 40.066 39.0909 40.0749 39.11C40.0838 39.1291 40.0889 39.1498 40.0899 39.1709V52.8938C40.0889 52.9148 40.0838 52.9355 40.0749 52.9546C40.066 52.9737 40.0533 52.9909 40.0378 53.0051C40.0222 53.0193 40.004 53.0304 39.9841 53.0375C39.9643 53.0447 39.9432 53.0479 39.9222 53.0469H26.1919ZM32.2149 54.5052V59.2229H28.3503V54.5125L32.2149 54.5052ZM35.0003 39.0177V43.75H31.1357V39.0177H35.0003ZM18.7836 8.85939C18.7836 8.34238 18.9885 7.84643 19.3534 7.48016C19.7183 7.11389 20.2135 6.90715 20.7305 6.90523H29.5534V9.31877H21.9263C21.7329 9.31877 21.5475 9.39559 21.4107 9.53234C21.274 9.66908 21.1972 9.85455 21.1972 10.0479V37.5594H18.7836V8.85939ZM15.6263 39.0177H19.4982V43.75H15.6263V39.0177ZM10.5222 52.8719V39.1709C10.5212 39.1511 10.5242 39.1313 10.5311 39.1128C10.538 39.0943 10.5486 39.0773 10.5622 39.063C10.5758 39.0487 10.5923 39.0373 10.6104 39.0295C10.6286 39.0217 10.6482 39.0177 10.668 39.0177H14.1388V44.4792C14.1388 44.6726 14.2156 44.858 14.3524 44.9948C14.4891 45.1315 14.6746 45.2084 14.868 45.2084H20.1982C20.3916 45.2084 20.577 45.1315 20.7138 44.9948C20.8505 44.858 20.9274 44.6726 20.9274 44.4792V39.0177H24.3909C24.4116 39.0167 24.4323 39.02 24.4517 39.0272C24.4712 39.0345 24.4889 39.0456 24.5039 39.0599C24.5189 39.0742 24.5309 39.0914 24.539 39.1105C24.5472 39.1296 24.5513 39.1501 24.5513 39.1709V52.8938C24.5513 52.9145 24.5472 52.935 24.539 52.9541C24.5309 52.9732 24.5189 52.9904 24.5039 53.0047C24.4889 53.019 24.4712 53.0302 24.4517 53.0374C24.4323 53.0447 24.4116 53.0479 24.3909 53.0469H10.6972C10.6774 53.0469 10.6578 53.0429 10.6396 53.0351C10.6214 53.0274 10.605 53.016 10.5914 53.0016C10.5777 52.9873 10.5671 52.9704 10.5603 52.9518C10.5534 52.9333 10.5503 52.9135 10.5513 52.8938L10.5222 52.8719ZM16.6982 54.4907V59.2084H12.8555V54.5125L16.6982 54.4907ZM7.93361 68.5417C7.8923 68.5417 7.85257 68.5258 7.82268 68.4973C7.7928 68.4688 7.77507 68.4298 7.7732 68.3886V54.6875C7.7732 54.645 7.7901 54.6042 7.82018 54.5741C7.85026 54.544 7.89107 54.5271 7.93361 54.5271H11.3972V59.9813C11.3972 60.1747 11.474 60.3601 11.6107 60.4969C11.7475 60.6336 11.9329 60.7104 12.1263 60.7104H17.4565C17.6499 60.7104 17.8354 60.6336 17.9721 60.4969C18.1089 60.3601 18.1857 60.1747 18.1857 59.9813V54.5052H21.6565C21.6773 54.5052 21.6978 54.5094 21.7169 54.5175C21.7359 54.5257 21.7531 54.5376 21.7675 54.5526C21.7818 54.5676 21.7929 54.5854 21.8002 54.6048C21.8074 54.6242 21.8106 54.6449 21.8097 54.6656V68.3886C21.8097 68.4292 21.7935 68.4681 21.7648 68.4968C21.7361 68.5256 21.6971 68.5417 21.6565 68.5417H7.93361ZM23.4211 68.5417C23.3811 68.5399 23.3432 68.5232 23.3148 68.4949C23.2865 68.4665 23.2698 68.4286 23.268 68.3886V54.6875C23.2679 54.6462 23.2838 54.6065 23.3124 54.5766C23.3409 54.5467 23.3798 54.529 23.4211 54.5271H26.8919V59.9813C26.8919 60.1747 26.9688 60.3601 27.1055 60.4969C27.2423 60.6336 27.4277 60.7104 27.6211 60.7104H32.944C33.1374 60.7104 33.3229 60.6336 33.4596 60.4969C33.5964 60.3601 33.6732 60.1747 33.6732 59.9813V54.5052H37.1367C37.18 54.5052 37.2216 54.5219 37.2528 54.5517C37.2841 54.5816 37.3026 54.6224 37.3044 54.6656V68.3886C37.3008 68.4305 37.2815 68.4695 37.2505 68.4978C37.2194 68.5262 37.1788 68.5418 37.1367 68.5417H23.4211ZM38.9086 68.5417C38.8888 68.5417 38.8693 68.5377 38.8511 68.5299C38.8329 68.5222 38.8165 68.5108 38.8028 68.4964C38.7892 68.4821 38.7786 68.4652 38.7717 68.4466C38.7648 68.4281 38.7618 68.4083 38.7628 68.3886V54.6875C38.7618 54.6674 38.7648 54.6473 38.7716 54.6283C38.7784 54.6094 38.7889 54.592 38.8024 54.5771C38.816 54.5622 38.8323 54.5501 38.8505 54.5415C38.8688 54.5329 38.8885 54.528 38.9086 54.5271H42.3794V59.9813C42.3794 60.1747 42.4563 60.3601 42.593 60.4969C42.7298 60.6336 42.9152 60.7104 43.1086 60.7104H48.4388C48.6322 60.7104 48.8177 60.6336 48.9544 60.4969C49.0912 60.3601 49.168 60.1747 49.168 59.9813V54.5052H52.6315C52.6741 54.5052 52.7149 54.5221 52.745 54.5522C52.775 54.5823 52.7919 54.6231 52.7919 54.6656V68.3886C52.7901 68.4298 52.7723 68.4688 52.7425 68.4973C52.7126 68.5258 52.6728 68.5417 52.6315 68.5417H38.9086ZM62.2419 66.5875C62.241 66.8451 62.1893 67.1 62.0898 67.3376C61.9904 67.5752 61.8451 67.7909 61.6623 67.9724C61.4795 68.1538 61.2627 68.2975 61.0244 68.3952C60.786 68.4929 60.5308 68.5426 60.2732 68.5417H54.243C54.243 68.4542 54.243 68.6948 54.243 66.1282H59.0628C59.2562 66.1282 59.4416 66.0513 59.5784 65.9146C59.7151 65.7778 59.7919 65.5924 59.7919 65.399V10.0479C59.7919 9.85455 59.7151 9.66908 59.5784 9.53234C59.4416 9.39559 59.2562 9.31877 59.0628 9.31877H51.4357C51.4357 9.12918 51.4357 9.38439 51.4357 6.90523H60.2732C60.7909 6.90715 61.2868 7.11365 61.6529 7.47971C62.0189 7.84577 62.2254 8.34171 62.2274 8.85939L62.2419 66.5875Z" fill="#302D3D"/>
<path d="M28.438 21.1823H31.9525C32.1824 21.1814 32.4097 21.1352 32.6217 21.0463C32.8336 20.9575 33.026 20.8278 33.1878 20.6646C33.3497 20.5014 33.4778 20.308 33.5648 20.0953C33.6519 19.8826 33.6962 19.6549 33.6952 19.425V15.9178C33.6962 15.6879 33.6519 15.4602 33.5648 15.2475C33.4778 15.0348 33.3497 14.8414 33.1878 14.6782C33.026 14.515 32.8336 14.3853 32.6217 14.2965C32.4097 14.2076 32.1824 14.1614 31.9525 14.1605H28.438C27.9719 14.1605 27.5249 14.3456 27.1954 14.6752C26.8658 15.0047 26.6807 15.4517 26.6807 15.9178V19.425C26.6807 19.8911 26.8658 20.3381 27.1954 20.6676C27.5249 20.9972 27.9719 21.1823 28.438 21.1823ZM28.139 15.9178C28.139 15.8385 28.1705 15.7624 28.2266 15.7064C28.2826 15.6503 28.3587 15.6188 28.438 15.6188H31.9525C31.9908 15.6197 32.0286 15.6282 32.0636 15.6438C32.0986 15.6593 32.1303 15.6816 32.1567 15.7094C32.1831 15.7371 32.2038 15.7698 32.2175 15.8056C32.2313 15.8413 32.2379 15.8794 32.2369 15.9178V19.425C32.2379 19.4634 32.2313 19.5015 32.2175 19.5372C32.2038 19.573 32.1831 19.6057 32.1567 19.6334C32.1303 19.6612 32.0986 19.6835 32.0636 19.699C32.0286 19.7146 31.9908 19.7231 31.9525 19.724H28.438C28.3587 19.724 28.2826 19.6925 28.2266 19.6364C28.1705 19.5804 28.139 19.5043 28.139 19.425V15.9178Z" fill="#302D3D"/>
<path d="M31.9088 24.1938H28.438C28.2075 24.1928 27.9792 24.2374 27.766 24.3249C27.5529 24.4124 27.3591 24.5412 27.1958 24.7038C27.0325 24.8664 26.903 25.0596 26.8146 25.2724C26.7262 25.4852 26.6807 25.7134 26.6807 25.9438V29.4511C26.6807 29.9171 26.8658 30.3641 27.1954 30.6937C27.5249 31.0232 27.9719 31.2084 28.438 31.2084H31.9452C32.4113 31.2084 32.8583 31.0232 33.1878 30.6937C33.5174 30.3641 33.7025 29.9171 33.7025 29.4511V25.9438C33.7026 25.7102 33.6559 25.479 33.5653 25.2638C33.4746 25.0486 33.3418 24.8537 33.1746 24.6906C33.0074 24.5275 32.8093 24.3996 32.5919 24.3142C32.3745 24.2289 32.1423 24.1879 31.9088 24.1938ZM32.2077 29.4511C32.2077 29.5304 32.1763 29.6064 32.1202 29.6625C32.0641 29.7185 31.9881 29.75 31.9088 29.75H28.438C28.3587 29.75 28.2826 29.7185 28.2266 29.6625C28.1705 29.6064 28.139 29.5304 28.139 29.4511V25.9438C28.1409 25.8658 28.1732 25.7916 28.2291 25.7371C28.285 25.6826 28.3599 25.6521 28.438 25.6521H31.9452C31.9842 25.6511 32.0229 25.658 32.0591 25.6722C32.0953 25.6864 32.1284 25.7077 32.1562 25.7349C32.1841 25.7621 32.2062 25.7946 32.2213 25.8305C32.2364 25.8663 32.2442 25.9049 32.2442 25.9438L32.2077 29.4511Z" fill="#302D3D"/>
<path d="M16.3916 63.6636H13.1833C12.9899 63.6636 12.8044 63.7404 12.6677 63.8771C12.5309 64.0139 12.4541 64.1994 12.4541 64.3927C12.4541 64.5861 12.5309 64.7716 12.6677 64.9083C12.8044 65.0451 12.9899 65.1219 13.1833 65.1219H16.3916C16.585 65.1219 16.7705 65.0451 16.9072 64.9083C17.0439 64.7716 17.1208 64.5861 17.1208 64.3927C17.1208 64.1994 17.0439 64.0139 16.9072 63.8771C16.7705 63.7404 16.585 63.6636 16.3916 63.6636Z" fill="#302D3D"/>
<path d="M31.8867 63.6636H28.6784C28.485 63.6636 28.2995 63.7404 28.1628 63.8771C28.026 64.0139 27.9492 64.1994 27.9492 64.3927C27.9492 64.5861 28.026 64.7716 28.1628 64.9083C28.2995 65.0451 28.485 65.1219 28.6784 65.1219H31.8867C32.0801 65.1219 32.2656 65.0451 32.4023 64.9083C32.5391 64.7716 32.6159 64.5861 32.6159 64.3927C32.6159 64.1994 32.5391 64.0139 32.4023 63.8771C32.2656 63.7404 32.0801 63.6636 31.8867 63.6636Z" fill="#302D3D"/>
<path d="M47.3965 63.6636H44.1882C43.9948 63.6636 43.8093 63.7404 43.6726 63.8771C43.5358 64.0139 43.459 64.1994 43.459 64.3927C43.459 64.5861 43.5358 64.7716 43.6726 64.9083C43.8093 65.0451 43.9948 65.1219 44.1882 65.1219H47.3965C47.5899 65.1219 47.7753 65.0451 47.9121 64.9083C48.0488 64.7716 48.1257 64.5861 48.1257 64.3927C48.1257 64.1994 48.0488 64.0139 47.9121 63.8771C47.7753 63.7404 47.5899 63.6636 47.3965 63.6636Z" fill="#302D3D"/>
<path d="M19.8923 48.9052C19.8923 48.7118 19.8154 48.5263 19.6787 48.3896C19.5419 48.2528 19.3565 48.176 19.1631 48.176H15.9548C15.7614 48.176 15.5759 48.2528 15.4392 48.3896C15.3024 48.5263 15.2256 48.7118 15.2256 48.9052C15.2256 49.0986 15.3024 49.284 15.4392 49.4208C15.5759 49.5575 15.7614 49.6344 15.9548 49.6344H19.1631C19.3565 49.6344 19.5419 49.5575 19.6787 49.4208C19.8154 49.284 19.8923 49.0986 19.8923 48.9052Z" fill="#302D3D"/>
<path d="M34.6572 48.176H31.4489C31.2555 48.176 31.07 48.2528 30.9333 48.3896C30.7965 48.5263 30.7197 48.7118 30.7197 48.9052C30.7197 49.0986 30.7965 49.284 30.9333 49.4208C31.07 49.5575 31.2555 49.6344 31.4489 49.6344H34.6572C34.8506 49.6344 35.0361 49.5575 35.1728 49.4208C35.3096 49.284 35.3864 49.0986 35.3864 48.9052C35.3864 48.7118 35.3096 48.5263 35.1728 48.3896C35.0361 48.2528 34.8506 48.176 34.6572 48.176Z" fill="#302D3D"/>
<path d="M38.026 16.7708H53.5208C53.7142 16.7708 53.8997 16.694 54.0364 16.5573C54.1732 16.4205 54.25 16.2351 54.25 16.0417C54.25 15.8483 54.1732 15.6628 54.0364 15.5261C53.8997 15.3893 53.7142 15.3125 53.5208 15.3125H38.026C37.8327 15.3125 37.6472 15.3893 37.5104 15.5261C37.3737 15.6628 37.2969 15.8483 37.2969 16.0417C37.2969 16.2351 37.3737 16.4205 37.5104 16.5573C37.6472 16.694 37.8327 16.7708 38.026 16.7708Z" fill="#302D3D"/>
<path d="M38.026 20.0375H49.1604C49.3538 20.0375 49.5393 19.9607 49.676 19.8239C49.8128 19.6872 49.8896 19.5017 49.8896 19.3083C49.8896 19.1149 49.8128 18.9295 49.676 18.7927C49.5393 18.656 49.3538 18.5792 49.1604 18.5792H38.026C37.8327 18.5792 37.6472 18.656 37.5104 18.7927C37.3737 18.9295 37.2969 19.1149 37.2969 19.3083C37.2969 19.5017 37.3737 19.6872 37.5104 19.8239C37.6472 19.9607 37.8327 20.0375 38.026 20.0375Z" fill="#302D3D"/>
<path d="M53.5208 25.3313H38.026C37.8327 25.3313 37.6472 25.4081 37.5104 25.5449C37.3737 25.6816 37.2969 25.8671 37.2969 26.0605C37.2969 26.2539 37.3737 26.4393 37.5104 26.5761C37.6472 26.7128 37.8327 26.7896 38.026 26.7896H53.5208C53.7142 26.7896 53.8997 26.7128 54.0364 26.5761C54.1732 26.4393 54.25 26.2539 54.25 26.0605C54.25 25.8671 54.1732 25.6816 54.0364 25.5449C53.8997 25.4081 53.7142 25.3313 53.5208 25.3313Z" fill="#302D3D"/>
<path d="M49.1604 28.6052H38.026C37.8327 28.6052 37.6472 28.682 37.5104 28.8188C37.3737 28.9555 37.2969 29.141 37.2969 29.3344C37.2969 29.5278 37.3737 29.7132 37.5104 29.85C37.6472 29.9867 37.8327 30.0636 38.026 30.0636H49.1604C49.3538 30.0636 49.5393 29.9867 49.676 29.85C49.8128 29.7132 49.8896 29.5278 49.8896 29.3344C49.8896 29.141 49.8128 28.9555 49.676 28.8188C49.5393 28.682 49.3538 28.6052 49.1604 28.6052Z" fill="#302D3D"/>
</g>
<defs>
<clipPath id="clip0_234_564">
<rect width="70" height="70" fill="white"/>
</clipPath>
</defs>
</svg>
