<svg width="70" height="70" viewBox="0 0 70 70" fill="none" xmlns="http://www.w3.org/2000/svg">
<path d="M13.6041 64.5493H56.3965V49.7176C56.3965 44.4101 51.7797 40.0922 46.1032 40.0922L40.379 40.0922C38.9862 41.4895 37.0424 42.2851 35.0003 42.2851C32.9582 42.2851 31.0159 41.4895 29.6218 40.0922L23.8976 40.0922C18.2223 40.0922 13.6041 44.4101 13.6041 49.7177V64.5493ZM57.0711 65.8983H12.9295C12.5571 65.8983 12.2549 65.5965 12.2549 65.2238V49.7176C12.2549 43.6661 17.4788 38.7428 23.8974 38.7428L29.9098 38.7428C30.0995 38.7428 30.2794 38.8223 30.4073 38.9617C31.557 40.2161 33.2308 40.9359 35.0002 40.9359C36.7697 40.9358 38.4435 40.2163 39.5946 38.9617C39.7212 38.8222 39.9024 38.7428 40.0907 38.7428L46.1031 38.7428C52.5232 38.7428 57.7457 43.6662 57.7457 49.7177L57.7457 65.2237C57.7457 65.5963 57.4435 65.8985 57.0711 65.8983Z" fill="black"/>
<path d="M23.7558 50.5995C23.4578 50.5995 23.1851 50.4008 23.1036 50.0994L20.3841 39.9498C20.2886 39.5897 20.5021 39.2201 20.862 39.1236C21.2217 39.0271 21.5913 39.2408 21.6883 39.6008L24.4078 49.7501C24.5035 50.11 24.2898 50.48 23.93 50.5765C23.8725 50.5919 23.8134 50.5996 23.7558 50.5995Z" fill="black"/>
<path d="M28.3826 50.5995C28.0847 50.5995 27.8119 50.4008 27.7318 50.0994L24.9154 39.5921C24.8198 39.232 25.0334 38.8623 25.3932 38.7659C25.753 38.6691 26.1226 38.8829 26.2196 39.2429L29.0348 49.7501C29.1317 50.1099 28.918 50.48 28.5582 50.5763C28.4992 50.5918 28.4402 50.5995 28.3826 50.5995Z" fill="black"/>
<path d="M46.2469 50.6007C46.1892 50.6007 46.1301 50.5933 46.0711 50.5777C45.7114 50.4809 45.4977 50.1112 45.5947 49.7514L48.3142 39.6013C48.4113 39.2415 48.7808 39.028 49.1406 39.1243C49.5005 39.2206 49.714 39.5906 49.617 39.9506L46.8975 50.1005C46.8176 50.4018 46.5448 50.6007 46.2469 50.6007Z" fill="black"/>
<path d="M41.6184 50.6027C41.5607 50.6027 41.5016 50.5954 41.444 50.5796C41.0843 50.4832 40.8706 50.1133 40.9661 49.7534L43.7827 39.2428C43.8797 38.8829 44.2493 38.6697 44.609 38.766C44.9689 38.8624 45.1824 39.2323 45.0854 39.5922L42.2704 50.1024C42.189 50.4038 41.9162 50.6029 41.6184 50.6027Z" fill="black"/>
<path d="M35 36.6185C29.0761 36.6185 24.2568 31.7987 24.2568 25.8747V21.622C24.2568 21.2495 24.559 20.9474 24.9314 20.9474C25.3039 20.9472 25.606 21.2496 25.606 21.6221L25.6062 25.8746C25.6062 31.0546 29.8195 35.2691 34.9999 35.2691C37.51 35.2688 39.8683 34.2921 41.6433 32.5176C43.4184 30.7431 44.3951 28.3841 44.3951 25.8747L44.3952 21.622C44.3952 21.2495 44.6973 20.9476 45.0697 20.9474C45.4422 20.9472 45.7444 21.2496 45.7444 21.6221V25.8746C45.7444 28.7443 44.6271 31.4424 42.5976 33.4716C40.5683 35.5006 37.8698 36.6185 35 36.6185Z" fill="black"/>
<path d="M29.91 40.0922C29.5376 40.0922 29.2354 39.7901 29.2354 39.4175L29.2355 34.564C29.2355 34.1915 29.5375 33.8896 29.91 33.8896C30.2825 33.8895 30.5846 34.1916 30.5846 34.5642L30.5846 39.4174C30.5846 39.7899 30.2824 40.0923 29.91 40.0922ZM40.0908 40.0922C39.7185 40.0922 39.4162 39.7901 39.4162 39.4175L39.4163 34.564C39.4163 34.1915 39.7184 33.8896 40.0908 33.8896C40.4633 33.8895 40.7655 34.1916 40.7655 34.5642L40.7655 39.4174C40.7655 39.7899 40.4633 40.0923 40.0908 40.0922Z" fill="black"/>
<path d="M24.2067 18.733C23.5967 18.733 23.0992 19.2297 23.0992 19.8402C23.0993 20.4508 23.5967 20.9475 24.2067 20.9475L45.7955 20.9473C46.4054 20.9473 46.9015 20.4509 46.9015 19.8404C46.9016 19.2295 46.4054 18.7332 45.7954 18.7332L24.2067 18.733ZM45.7955 22.2965H24.2067C22.8519 22.2965 21.75 21.1948 21.75 19.8404C21.75 18.4857 22.8519 17.3839 24.2067 17.3839L45.7955 17.3837C47.1488 17.3837 48.2507 18.4858 48.2507 19.8402C48.2507 21.1945 47.1488 22.2968 45.7955 22.2965Z" fill="black"/>
<path d="M24.3049 18.7331C23.9312 18.7331 23.6289 18.431 23.6289 18.0585C23.629 12.9908 27.0328 8.49075 31.9054 7.11511C32.2653 7.01362 32.6377 7.22258 32.7389 7.58106C32.8402 7.9395 32.6306 8.3124 32.2723 8.41365C27.9788 9.62591 24.9781 13.592 24.9781 18.0585C24.9781 18.4308 24.6773 18.7331 24.3049 18.7331ZM45.6969 18.7331C45.3246 18.7331 45.0223 18.431 45.0223 18.0585C45.0224 13.5919 42.0231 9.62595 37.7295 8.41365C37.3699 8.31232 37.1617 7.93963 37.2629 7.58106C37.3642 7.22229 37.7366 7.01391 38.0949 7.11511C42.969 8.49067 46.3715 12.9909 46.3715 18.0585C46.3716 18.4308 46.0693 18.7331 45.6969 18.7331Z" fill="black"/>
<path d="M25.8114 13.2555C25.6935 13.2555 25.5739 13.2248 25.4657 13.1601C25.1453 12.9687 25.0413 12.5547 25.2324 12.2349C25.6963 11.4584 26.2542 10.7367 26.8894 10.0897C27.1508 9.82385 27.5781 9.82034 27.8437 10.0815C28.1094 10.3425 28.1135 10.7697 27.8521 11.0355C27.2914 11.6058 26.7994 12.2424 26.3905 12.927C26.2641 13.1382 26.0405 13.2556 25.8114 13.2555Z" fill="black"/>
<path d="M36.8261 18.7331C36.4536 18.7331 36.1514 18.431 36.1514 18.0585C36.1514 17.766 36.3369 17.5172 36.5969 17.4236C36.6264 17.349 36.6601 17.2195 36.6713 17.0457L37.3614 5.70699C37.3686 5.60013 37.3516 5.51136 37.3305 5.45088L32.6702 5.45084C32.6506 5.51124 32.6335 5.60041 32.6392 5.70731L33.3307 17.0454C33.342 17.2193 33.3756 17.3491 33.4038 17.4235C33.6639 17.5169 33.8507 17.766 33.8507 18.0585C33.8508 18.4308 33.5485 18.7331 33.1761 18.7331C32.5114 18.7331 32.0433 18.1029 31.9843 17.1276L31.2929 5.78922C31.2619 5.27031 31.4221 4.76956 31.7243 4.44915C31.9351 4.22489 32.2049 4.10172 32.4846 4.10172L37.5175 4.10156C37.7972 4.10156 38.0669 4.22509 38.2778 4.44915C38.5786 4.7694 38.7401 5.27059 38.7078 5.78926L38.0178 17.1276C37.9588 18.1029 37.4907 18.7331 36.8261 18.7331Z" fill="black"/>
<path d="M25.2703 29.1465C25.2381 29.1465 25.207 29.1443 25.1747 29.1396C23.2789 28.8685 21.8804 27.8102 21.4335 26.308C21.1089 25.2175 21.3829 24.0899 22.1291 23.4354C22.8938 22.7639 24.0166 22.6844 25.2098 23.2169C25.55 23.3685 25.7031 23.7676 25.5499 24.1079C25.3982 24.4478 25.0004 24.6011 24.6589 24.4489C23.9591 24.1357 23.3758 24.1362 23.0188 24.4497C22.6675 24.758 22.5522 25.3364 22.7264 25.9233C23.0188 26.9067 24.0054 27.6097 25.3644 27.8039C25.7342 27.8566 25.9899 28.1984 25.9379 28.5673C25.8887 28.9037 25.6005 29.1464 25.2703 29.1465Z" fill="black"/>
<path d="M44.732 29.1466C44.4017 29.1466 44.1121 28.9037 44.0643 28.5673C44.0125 28.1982 44.268 27.8567 44.6363 27.8039C45.9969 27.6094 46.9848 26.9065 47.2771 25.9232C47.4501 25.3383 47.3361 24.7619 46.9862 24.4548C46.6293 24.1417 46.046 24.1417 45.3447 24.4548C45.0046 24.6069 44.6068 24.4541 44.455 24.1139C44.3019 23.7737 44.455 23.3748 44.7951 23.2228C45.9883 22.6899 47.1113 22.7696 47.8758 23.4404C48.6207 24.0937 48.8933 25.2192 48.5701 26.3078C48.1233 27.8099 46.7247 28.8687 44.8274 29.1397C44.7952 29.1443 44.7628 29.1466 44.732 29.1466Z" fill="black"/>
<path d="M23.5036 52.5114H28.6405V50.5992H23.5036V52.5114ZM29.315 53.8607H22.829C22.4566 53.8607 22.1543 53.5588 22.1543 53.1862V49.9247C22.1543 49.5522 22.4565 49.2503 22.8289 49.2503L29.315 49.2502C29.6875 49.2502 29.9895 49.5523 29.9895 49.9249L29.9896 53.1859C29.9896 53.5588 29.6874 53.8608 29.315 53.8607Z" fill="black"/>
<path d="M41.364 52.5118H46.5008V50.6H41.364V52.5118ZM47.1753 53.8611H40.6893C40.317 53.8611 40.0146 53.5593 40.0146 53.1867V49.9251C40.0146 49.553 40.3169 49.2508 40.6893 49.2508L47.1753 49.2507C47.5478 49.2507 47.8499 49.553 47.8499 49.9254L47.85 53.1866C47.85 53.5592 47.5477 53.8613 47.1753 53.8611Z" fill="black"/>
<path d="M35.0022 56.2864L35.0021 56.2865C32.6831 56.2861 30.433 55.3266 28.828 53.6531C28.5709 53.3841 28.5793 52.9572 28.8477 52.6993C29.1176 52.4415 29.5434 52.4504 29.802 52.7191C31.1541 54.1285 33.0499 54.9372 35.0021 54.9373C36.9556 54.9371 38.8515 54.129 40.2035 52.7195C40.4607 52.4503 40.888 52.442 41.1578 52.6997C41.4263 52.9576 41.4347 53.3847 41.1775 53.6536C39.5726 55.3267 37.321 56.2865 35.0022 56.2864Z" fill="black"/>
<path d="M21.4589 65.8984C21.088 65.8984 20.7871 65.5994 20.7843 65.2284C20.7577 61.1256 21.2256 57.022 22.1729 53.0305C22.2586 52.6681 22.6226 52.4441 22.9852 52.5299C23.3478 52.6159 23.5712 52.9796 23.4855 53.3422C22.5622 57.2286 22.1082 61.2249 22.1335 65.2197C22.1364 65.5923 21.8356 65.8963 21.4631 65.8986C21.4618 65.8984 21.4603 65.8986 21.4589 65.8984Z" fill="black"/>
<path d="M48.546 65.8984C48.5445 65.8984 48.5431 65.8986 48.5417 65.8986C48.1693 65.8962 47.8685 65.5924 47.8713 65.2197C47.8966 61.225 47.4413 57.2292 46.5193 53.3424C46.4336 52.9798 46.657 52.6164 47.0196 52.5304C47.3823 52.4445 47.7462 52.6685 47.832 53.031C48.7794 57.0224 49.2458 61.126 49.2205 65.2284C49.2178 65.5992 48.9169 65.8986 48.546 65.8984Z" fill="black"/>
<path d="M29.7558 14.4511C29.6222 14.4511 29.4872 14.4118 29.3706 14.3297L26.1452 12.0782C25.8402 11.8651 25.7657 11.4446 25.9793 11.1392C26.1915 10.8336 26.6118 10.7588 26.9182 10.9721L30.1422 13.2232C30.4487 13.4364 30.523 13.8573 30.3094 14.1627C30.1788 14.3506 29.9693 14.4512 29.7558 14.4511Z" fill="black"/>
<path d="M40.2702 14.4511C40.0581 14.4511 39.8486 14.3506 39.7165 14.1627C39.5044 13.857 39.5787 13.4366 39.8837 13.2234L43.1093 10.972C43.4143 10.7589 43.8344 10.8337 44.048 11.1392C44.2618 11.4445 44.1872 11.8652 43.8807 12.0785L40.6568 14.3294C40.5387 14.4116 40.4037 14.4512 40.2702 14.4511Z" fill="black"/>
<path d="M36.6709 17.0457L37.361 5.70701C37.3681 5.60015 37.3512 5.51138 37.3301 5.45091L32.6697 5.45087C32.6502 5.51126 32.6331 5.60044 32.6388 5.70734L32.7595 7.68634C32.7624 7.71125 32.7639 7.73608 32.7641 7.76103L33.3303 17.0454C33.3398 17.1917 33.3651 17.3067 33.3896 17.3839H36.6107C36.6361 17.3067 36.6615 17.1919 36.6709 17.0457Z" fill="#F09D00"/>
<path d="M31.9841 17.1276L31.4689 8.67792C29.9285 9.25848 28.5838 10.2035 27.524 11.3955L30.1417 13.2232C30.4481 13.4364 30.5225 13.8572 30.3089 14.1627C30.1782 14.3506 29.9688 14.4512 29.7553 14.4511C29.6217 14.4511 29.4867 14.4118 29.37 14.3297L26.6956 12.4628C25.7258 13.9008 25.1227 15.5916 25.001 17.3839L32.0101 17.3839C31.9982 17.3014 31.9895 17.2159 31.9841 17.1276Z" fill="#F4B601"/>
<path d="M45.6965 18.7331H36.8255H33.1755H24.3045H24.2061C23.5962 18.7331 23.0986 19.2298 23.0986 19.8402C23.0987 20.4508 23.5962 20.9475 24.2061 20.9475H24.9313H45.0696L45.795 20.9473C46.4048 20.9473 46.9009 20.4509 46.9009 19.8404C46.901 19.2296 46.4048 18.7332 45.7948 18.7332L45.6965 18.7331Z" fill="#F09D00"/>
<path d="M37.9922 17.3838L44.9999 17.3837C44.8785 15.5964 44.2787 13.9101 43.3139 12.4748L40.6576 14.3294C40.5394 14.4116 40.4045 14.4512 40.271 14.4511C40.0588 14.4511 39.8493 14.3506 39.7172 14.1627C39.5051 13.857 39.5795 13.4366 39.8845 13.2234L42.4875 11.4066C41.4262 10.2091 40.0779 9.25985 38.5324 8.67755L38.0181 17.1276C38.0128 17.2159 38.0041 17.3014 37.9922 17.3838Z" fill="#F4B601"/>
<path d="M44.3956 22.2966H25.6064L25.6065 23.7668C25.6107 23.8099 25.6108 23.8537 25.6065 23.8975L25.6066 25.8746C25.6066 31.0546 29.8199 35.2692 35.0003 35.2692C36.6784 35.269 38.2887 34.8324 39.7022 34.0127C39.7326 33.9912 39.765 33.9722 39.7988 33.9558C40.4631 33.5599 41.0826 33.0787 41.6437 32.5176C42.8202 31.3415 43.646 29.9086 44.0692 28.3453C44.0752 28.3142 44.0833 28.2838 44.0934 28.2542C44.2928 27.4868 44.3956 26.6886 44.3956 25.8747V23.8607C44.3956 23.8605 44.3956 23.8603 44.3956 23.8602C44.3951 23.8456 44.3951 23.8309 44.3956 23.8164C44.3956 23.8163 44.3956 23.816 44.3956 23.8158L44.3956 22.2966Z" fill="#FFE0B2"/>
<path d="M39.4157 35.6754C38.0457 36.2933 36.5477 36.6185 34.9999 36.6185C33.4269 36.6185 31.9317 36.2786 30.584 35.6685L30.5841 39.1467C31.725 40.2866 33.3193 40.9359 34.9998 40.9359C36.6799 40.9358 38.2737 40.2873 39.4156 39.1479L39.4157 35.6754Z" fill="#E6CAA0"/>
<path d="M24.3883 27.5542C24.302 27.0069 24.2572 26.446 24.2572 25.8747V24.2995C23.7367 24.1482 23.3052 24.1984 23.019 24.4497C22.6677 24.758 22.5524 25.3364 22.7266 25.9233C22.9432 26.6518 23.5407 27.2264 24.3883 27.5542Z" fill="#FFE0B2"/>
<path d="M45.7448 25.8746C45.7448 26.4422 45.7011 27.003 45.6152 27.5533C46.4628 27.2252 47.0603 26.651 47.2767 25.9232C47.4497 25.3383 47.3357 24.7619 46.9857 24.4548C46.6993 24.2035 46.267 24.1539 45.7448 24.306V25.8746Z" fill="#FFE0B2"/>
<path d="M40.3795 40.0922C38.9867 41.4895 37.0429 42.2852 35.0008 42.2852C32.9588 42.2852 31.0164 41.4895 29.6223 40.0923L26.4473 40.0923L28.901 49.2503H29.3159C29.6884 49.2503 29.9905 49.5523 29.9905 49.9249L29.9905 52.9083C31.3273 54.2007 33.1392 54.9372 35.0022 54.9374C36.8667 54.9372 38.6786 54.2011 40.0154 52.9087V49.9251C40.0154 49.5529 40.3176 49.2508 40.69 49.2508H41.1015L43.5558 40.0923L40.3795 40.0922Z" fill="#ECEFF1"/>
<path d="M40.9711 53.861C39.3826 55.4058 37.223 56.2865 35.0016 56.2865C32.7803 56.2861 30.6221 55.4057 29.0337 53.8607H23.3653C22.5721 57.3656 22.1592 60.9556 22.1338 64.5492H47.8708C47.8452 60.9557 47.4313 57.3662 46.6392 53.861H40.9711Z" fill="#3E5295"/>
<path d="M20.7849 64.5493C20.8111 60.6996 21.272 56.8545 22.1551 53.1077V49.9247C22.1551 49.5522 22.4573 49.2502 22.8297 49.2502H22.8763L20.5615 40.6111C16.5184 41.9101 13.6045 45.5017 13.6045 49.7177V64.5493H20.7849Z" fill="#ECEFF1"/>
<path d="M47.8503 53.1085C48.7335 56.8552 49.1931 60.7001 49.2202 64.5494H56.3966V49.7177C56.3966 45.5017 53.4833 41.9101 49.4398 40.6112L47.125 49.2507H47.1756C47.5481 49.2507 47.8502 49.553 47.8502 49.9254L47.8503 53.1085Z" fill="#ECEFF1"/>
<path d="M41.3643 52.5118H46.5011V50.6H46.2752C46.2657 50.6004 46.2562 50.6006 46.2467 50.6006C46.2373 50.6006 46.2277 50.6004 46.2182 50.6H41.6804C41.66 50.6019 41.6394 50.6028 41.6187 50.6028C41.5981 50.6028 41.5774 50.6019 41.5566 50.6H41.3643V52.5118Z" fill="#F4B601"/>
<path d="M42.499 49.2508L45.7288 49.2507L48.1323 40.28C47.4762 40.1569 46.7977 40.0923 46.1034 40.0923H44.9519L42.499 49.2508Z" fill="#3E5295"/>
<path d="M28.6408 52.5114V50.5992H28.4033C28.3962 50.5995 28.3891 50.5996 28.3821 50.5996C28.3751 50.5996 28.3682 50.5994 28.3613 50.5992H23.7768C23.7697 50.5995 23.7626 50.5996 23.7555 50.5996C23.7485 50.5996 23.7416 50.5994 23.7347 50.5992H23.5039V52.5114H28.6408Z" fill="#F4B601"/>
<path d="M24.2738 49.2503L27.5039 49.2503L25.0491 40.0922H23.8977C23.2039 40.0922 22.5258 40.1568 21.8701 40.2797L24.2738 49.2503Z" fill="#3E5295"/>
</svg>
