<svg width="70" height="70" viewBox="0 0 70 70" fill="none" xmlns="http://www.w3.org/2000/svg">
<g clip-path="url(#clip0_234_620)">
<path d="M52.1811 1.34229C50.9709 1.34229 49.8754 1.829 49.0805 2.62416C48.2856 3.41891 47.7986 4.50746 47.7986 5.71756V59.919C47.7986 60.5205 47.677 61.1005 47.4549 61.6232C47.3475 61.8812 47.2114 62.1317 47.0539 62.361C46.9752 62.4826 46.8964 62.59 46.8033 62.6973C46.7175 62.812 46.6244 62.9123 46.5241 63.0123H46.517C45.7221 63.8074 44.6265 64.2942 43.4163 64.2942H5.7207V5.71756C5.7207 4.50746 6.2077 3.41891 7.00258 2.62416C7.79746 1.829 8.89299 1.34229 10.1032 1.34229H52.1811Z" fill="#E8F1F8"/>
<path opacity="0.12" d="M52.1811 1.34229C50.9709 1.34229 49.8754 1.82941 49.0805 2.62416C48.2856 3.41891 47.7986 4.50746 47.7986 5.71756V59.919C47.7986 60.5207 47.677 61.1008 47.4549 61.6236C47.3475 61.8813 47.2114 62.1321 47.0539 62.3611C46.9752 62.4828 46.8964 62.5901 46.8033 62.6978C46.7173 62.8121 46.6244 62.9125 46.524 63.0128H46.5169C45.722 63.8076 44.6263 64.2947 43.4161 64.2947H5.7207V58.1219C25.2344 54.4697 40.0074 37.3406 40.0074 16.7672V1.34229H52.1811Z" fill="black"/>
<path d="M60.9383 51.0895H47.7979V5.71756C47.7979 4.50746 48.2848 3.41891 49.0797 2.62416C49.8746 1.829 50.9701 1.34229 52.1804 1.34229C54.5936 1.34229 56.5558 3.3042 56.5558 5.71756V46.7068C56.5558 49.1275 58.518 51.0895 60.9383 51.0895Z" fill="#ACBADF"/>
<path d="M56.5576 19.6647V46.7082C56.5576 49.1272 58.5184 51.088 60.9374 51.088C63.3562 51.088 65.3172 49.1272 65.3172 46.7082V19.6647H56.5576Z" fill="#E8F1F8"/>
<path d="M28.9503 15.5109C28.9503 20.4391 24.9581 24.4312 20.0325 24.4312C15.107 24.4312 11.1123 20.4391 11.1123 15.5109C11.1123 10.5853 15.107 6.59314 20.0325 6.59314C24.9581 6.59314 28.9503 10.5853 28.9503 15.5109Z" fill="#FDCF17"/>
<path d="M17.7939 18.8763H20.5877C21.5167 18.8763 22.2697 18.1233 22.2697 17.1943C22.2697 16.2653 21.5167 15.5122 20.5877 15.5122H19.4761C18.5471 15.5122 17.7941 14.7592 17.7941 13.8302C17.7941 12.9012 18.5471 12.1481 19.4761 12.1481H22.2698" stroke="#F78721" stroke-width="1.5" stroke-miterlimit="1" stroke-linecap="round" stroke-linejoin="round"/>
<path d="M20.0312 20.2746V18.8763" stroke="#F78721" stroke-width="1.5" stroke-miterlimit="1" stroke-linecap="round" stroke-linejoin="round"/>
<path d="M20.0312 12.148V10.7498" stroke="#F78721" stroke-width="1.5" stroke-miterlimit="1" stroke-linecap="round" stroke-linejoin="round"/>
<path d="M16.4279 46.661V51.5048C16.4279 52.0198 16.0104 52.4372 15.4955 52.4372H12.0447C11.5297 52.4372 11.1123 52.0197 11.1123 51.5048V46.661C11.1123 46.146 11.5298 45.7286 12.0447 45.7286H15.4955C16.0104 45.7284 16.4279 46.146 16.4279 46.661Z" fill="#F14F4A"/>
<path opacity="0.12" d="M16.4274 46.6595V51.5048C16.4274 52.0208 16.0109 52.4372 15.495 52.4372H12.0447C11.5287 52.4372 11.1123 52.0208 11.1123 51.5048V51.4178C13.4933 51.3742 15.411 49.4286 15.411 47.0352V45.7271H15.495C16.0108 45.7269 16.4274 46.1465 16.4274 46.6595Z" fill="black"/>
<path d="M23.8156 38.6794V51.5047C23.8156 52.0197 23.3981 52.4371 22.8832 52.4371H19.4324C18.9174 52.4371 18.5 52.0196 18.5 51.5047V38.6794C18.5 38.1643 18.9175 37.7469 19.4324 37.7469H22.8832C23.3982 37.7469 23.8156 38.1643 23.8156 38.6794Z" fill="#F14F4A"/>
<path opacity="0.12" d="M23.8149 38.6779V51.5048C23.8149 52.0208 23.3985 52.4372 22.8825 52.4372H19.4324C18.9164 52.4372 18.5 52.0208 18.5 51.5048V51.4179C20.881 51.3742 22.7987 49.4286 22.7987 47.0352V37.7453H22.8827C23.3985 37.7453 23.8149 38.1649 23.8149 38.6779Z" fill="black"/>
<path d="M31.2023 42.236V51.5047C31.2023 52.0197 30.7848 52.4371 30.2699 52.4371H26.8191C26.3041 52.4371 25.8867 52.0195 25.8867 51.5047V42.236C25.8867 41.7209 26.3043 41.3035 26.8191 41.3035H30.2699C30.7848 41.3035 31.2023 41.7209 31.2023 42.236Z" fill="#F14F4A"/>
<path opacity="0.12" d="M31.2018 42.2345V51.5048C31.2018 52.0208 30.7854 52.4373 30.2694 52.4373H26.8191C26.3032 52.4373 25.8867 52.0208 25.8867 51.5048V51.4179C28.2677 51.3743 30.1854 49.4286 30.1854 47.0352V41.3021H30.2694C30.7854 41.3019 31.2018 41.7215 31.2018 42.2345Z" fill="black"/>
<path d="M38.5891 34.2543V51.5047C38.5891 52.0197 38.1715 52.4371 37.6566 52.4371H34.2059C33.6908 52.4371 33.2734 52.0196 33.2734 51.5047V34.2543C33.2734 33.7393 33.691 33.3219 34.2059 33.3219H37.6566C38.1717 33.3219 38.5891 33.7393 38.5891 34.2543Z" fill="#F14F4A"/>
<path opacity="0.12" d="M38.5894 34.2528V51.5047C38.5894 52.0206 38.1728 52.4371 37.6569 52.4371H34.2068C33.6909 52.4371 33.2744 52.0206 33.2744 51.5047V51.4177C35.6554 51.3741 37.5731 49.4285 37.5731 47.0351V33.3203H37.6571C38.1728 33.3203 38.5894 33.7398 38.5894 34.2528Z" fill="black"/>
<path d="M43.4156 64.2942H5.71289C3.29967 64.2942 1.34473 62.3322 1.34473 59.9189V56.6248H39.0472V59.9189C39.0474 62.3322 41.0022 64.2942 43.4156 64.2942Z" fill="#ACBADF"/>
<path d="M68.6582 35.944V66.0318C68.6582 67.4809 67.4835 68.6555 66.0345 68.6555H44.2916C42.8425 68.6555 41.668 67.4808 41.668 66.0318V35.944C41.668 34.4949 42.8427 33.3204 44.2916 33.3204H66.0345C67.4836 33.3202 68.6582 34.4949 68.6582 35.944Z" fill="#475DA9"/>
<path opacity="0.12" d="M68.658 35.9444V66.0314C68.658 67.4809 67.4839 68.6551 66.0344 68.6551H44.2906C42.841 68.6551 41.667 67.4809 41.667 66.0314V65.0181H48.9378C57.8222 65.0181 65.0209 57.8194 65.0209 48.9382V33.3208H66.0342C67.484 33.3207 68.658 34.4948 68.658 35.9444Z" fill="black"/>
<path d="M65.0503 44.6771V37.7743C65.0503 37.231 64.6097 36.7905 64.0664 36.7905H46.2592C45.7159 36.7905 45.2754 37.231 45.2754 37.7743V44.6771C45.2754 45.2204 45.7159 45.6609 46.2592 45.6609H64.0664C64.6097 45.6609 65.0503 45.2204 65.0503 44.6771Z" fill="#ACBADF"/>
<path d="M50.3356 49.6248V51.2284C50.3356 51.9346 49.763 52.5072 49.0567 52.5072H46.5533C45.847 52.5072 45.2744 51.9346 45.2744 51.2284V49.6248C45.2744 48.9185 45.847 48.3459 46.5533 48.3459H49.0567C49.7632 48.3461 50.3356 48.9185 50.3356 49.6248Z" fill="#F78721"/>
<path d="M57.693 49.6248V51.2284C57.693 51.9346 57.1205 52.5072 56.4142 52.5072H53.9107C53.2044 52.5072 52.6318 51.9346 52.6318 51.2284V49.6248C52.6318 48.9185 53.2044 48.3459 53.9107 48.3459H56.4142C57.1205 48.3461 57.693 48.9185 57.693 49.6248Z" fill="#E8F1F8"/>
<path d="M65.0505 49.6248V51.2284C65.0505 51.9346 64.4779 52.5072 63.7716 52.5072H61.2681C60.5618 52.5072 59.9893 51.9346 59.9893 51.2284V49.6248C59.9893 48.9185 60.5618 48.3459 61.2681 48.3459H63.7716C64.4779 48.3461 65.0505 48.9185 65.0505 49.6248Z" fill="#E8F1F8"/>
<path d="M50.3356 55.9635V57.567C50.3356 58.2733 49.763 58.8459 49.0567 58.8459H46.5533C45.847 58.8459 45.2744 58.2733 45.2744 57.567V55.9635C45.2744 55.2572 45.847 54.6846 46.5533 54.6846H49.0567C49.7632 54.6847 50.3356 55.2572 50.3356 55.9635Z" fill="#E8F1F8"/>
<path d="M57.693 55.9635V57.567C57.693 58.2733 57.1205 58.8459 56.4142 58.8459H53.9107C53.2044 58.8459 52.6318 58.2733 52.6318 57.567V55.9635C52.6318 55.2572 53.2044 54.6846 53.9107 54.6846H56.4142C57.1205 54.6847 57.693 55.2572 57.693 55.9635Z" fill="#E8F1F8"/>
<path d="M50.3356 62.3022V63.9058C50.3356 64.612 49.763 65.1846 49.0567 65.1846H46.5533C45.847 65.1846 45.2744 64.612 45.2744 63.9058V62.3022C45.2744 61.5959 45.847 61.0233 46.5533 61.0233H49.0567C49.7632 61.0235 50.3356 61.5959 50.3356 62.3022Z" fill="#E8F1F8"/>
<path d="M57.693 62.3022V63.9058C57.693 64.612 57.1205 65.1846 56.4142 65.1846H53.9107C53.2044 65.1846 52.6318 64.612 52.6318 63.9058V62.3022C52.6318 61.5959 53.2044 61.0233 53.9107 61.0233H56.4142C57.1205 61.0235 57.693 61.5959 57.693 62.3022Z" fill="#E8F1F8"/>
<path d="M65.049 55.962V63.9036C65.049 64.6125 64.4762 65.1854 63.7744 65.1854H61.2681C60.5592 65.1854 59.9863 64.6126 59.9863 63.9036V55.962C59.9863 55.2602 60.5592 54.6875 61.2681 54.6875H63.7744C64.4762 54.6875 65.049 55.2604 65.049 55.962Z" fill="#FDCF17"/>
<path d="M20.0327 24.968C25.2461 24.968 29.4875 20.7258 29.4875 15.5111C29.4875 10.2978 25.2462 6.05634 20.0327 6.05634C14.818 6.05634 10.5752 10.2976 10.5752 15.5111C10.5752 20.7258 14.818 24.968 20.0327 24.968ZM20.0327 7.13053C24.6538 7.13053 28.4133 10.89 28.4133 15.5111C28.4133 20.1336 24.6538 23.8938 20.0327 23.8938C15.4103 23.8938 11.6494 20.1336 11.6494 15.5111C11.6494 10.89 15.4103 7.13053 20.0327 7.13053Z" fill="black"/>
<path d="M20.5867 18.3392H17.793C17.4965 18.3392 17.256 18.5798 17.256 18.8762C17.256 19.1727 17.4966 19.4132 17.793 19.4132H19.4938V20.2748C19.4938 20.5714 19.7344 20.8119 20.0308 20.8119C20.3274 20.8119 20.5679 20.5712 20.5679 20.2748V19.4132H20.5867C21.8105 19.4132 22.8057 18.418 22.8057 17.1943C22.8057 15.9705 21.8105 14.9747 20.5867 14.9747H19.4755C18.844 14.9747 18.3301 14.4614 18.3301 13.8299C18.3301 13.1984 18.8441 12.6852 19.4755 12.6852H22.2685C22.5651 12.6852 22.8055 12.4445 22.8055 12.1481C22.8055 11.8517 22.5649 11.6111 22.2685 11.6111H20.5677V10.7495C20.5677 10.453 20.3271 10.2125 20.0307 10.2125C19.7342 10.2125 19.4937 10.4531 19.4937 10.7495V11.6111H19.4755C18.2517 11.6111 17.2559 12.6063 17.2559 13.83C17.2559 15.0538 18.2517 16.049 19.4755 16.049H20.5867C21.2182 16.049 21.7315 16.563 21.7315 17.1944C21.7315 17.8259 21.2181 18.3392 20.5867 18.3392Z" fill="black"/>
<path d="M15.4956 45.1914H12.0452C11.2347 45.1914 10.5752 45.8508 10.5752 46.6607V51.5049C10.5752 52.3147 11.2346 52.9743 12.0452 52.9743H15.4956C16.306 52.9743 16.9656 52.3149 16.9656 51.5049V46.6607C16.9656 45.8509 16.3062 45.1914 15.4956 45.1914ZM15.8914 51.5048C15.8914 51.723 15.7138 51.8999 15.4956 51.8999H12.0452C11.827 51.8999 11.6494 51.723 11.6494 51.5048V46.6607C11.6494 46.4425 11.827 46.2656 12.0452 46.2656H15.4956C15.7138 46.2656 15.8914 46.4425 15.8914 46.6607V51.5048Z" fill="black"/>
<path d="M22.8833 37.2095H19.4322C18.6224 37.2095 17.9629 37.8689 17.9629 38.6795V51.5049C17.9629 52.3147 18.6223 52.9742 19.4322 52.9742H22.8833C23.693 52.9742 24.3526 52.3148 24.3526 51.5049V38.6795C24.3526 37.8689 23.693 37.2095 22.8833 37.2095ZM23.2784 51.5048C23.2784 51.723 23.1015 51.8999 22.8833 51.8999H19.4322C19.214 51.8999 19.0371 51.723 19.0371 51.5048V38.6793C19.0371 38.4611 19.214 38.2835 19.4322 38.2835H22.8833C23.1015 38.2835 23.2784 38.4611 23.2784 38.6793V51.5048Z" fill="black"/>
<path d="M30.27 40.7662H26.8196C26.0091 40.7662 25.3496 41.4256 25.3496 42.2362V51.5049C25.3496 52.3147 26.009 52.9743 26.8196 52.9743H30.27C31.0804 52.9743 31.74 52.3149 31.74 51.5049V42.2362C31.7398 41.4256 31.0804 40.7662 30.27 40.7662ZM30.6658 51.5048C30.6658 51.723 30.4882 51.8999 30.27 51.8999H26.8196C26.6014 51.8999 26.4238 51.723 26.4238 51.5048V42.2361C26.4238 42.0179 26.6014 41.8403 26.8196 41.8403H30.27C30.4882 41.8403 30.6658 42.0179 30.6658 42.2361V51.5048Z" fill="black"/>
<path d="M37.6577 32.7849H34.2066C33.3968 32.7849 32.7373 33.4442 32.7373 34.2542V51.5049C32.7373 52.3147 33.3967 52.9742 34.2066 52.9742H37.6577C38.4675 52.9742 39.127 52.3148 39.127 51.5049V34.2542C39.127 33.4444 38.4676 32.7849 37.6577 32.7849ZM38.0528 51.5048C38.0528 51.723 37.8759 51.8999 37.6577 51.8999H34.2066C33.9884 51.8999 33.8115 51.723 33.8115 51.5048V34.2542C33.8115 34.036 33.9884 33.859 34.2066 33.859H37.6577C37.8759 33.859 38.0528 34.036 38.0528 34.2542V51.5048Z" fill="black"/>
<path d="M23.8152 27.9792H11.1122C10.8157 27.9792 10.5752 28.2198 10.5752 28.5162C10.5752 28.8128 10.8158 29.0532 11.1122 29.0532H23.8153C24.1119 29.0532 24.3523 28.8126 24.3523 28.5162C24.3523 28.2198 24.1117 27.9792 23.8152 27.9792Z" fill="black"/>
<path d="M19.6823 33.8591C19.9788 33.8591 20.2193 33.6185 20.2193 33.3221C20.2193 33.0255 19.9787 32.785 19.6823 32.785H11.1122C10.8157 32.785 10.5752 33.0257 10.5752 33.3221C10.5752 33.6186 10.8158 33.8591 11.1122 33.8591H19.6823Z" fill="black"/>
<path d="M66.0342 32.7835H65.8559V19.6622C65.8559 19.3657 65.6153 19.1252 65.3189 19.1252H57.0907V5.72003C57.0907 3.01095 54.8872 0.807312 52.1787 0.807312H10.1002C7.35504 0.807312 5.18053 3.02899 5.18053 5.72003V56.0902H1.3427C1.04615 56.0902 0.805664 56.3308 0.805664 56.6273V59.9211C0.805664 62.6302 3.00574 64.8338 5.7177 64.8338H41.1303V66.0317C41.1303 67.7745 42.5485 69.1927 44.2912 69.1927H66.0342C67.7769 69.1927 69.1951 67.7745 69.1951 66.0317V35.9438C69.1951 34.201 67.7769 32.7835 66.0342 32.7835ZM57.0977 20.1994H64.7817V32.7835H57.0977V20.1994ZM52.1787 1.88151C54.2948 1.88151 56.0165 3.60321 56.0165 5.72003V32.7835H48.3332V5.72003C48.3332 3.60841 50.0386 1.88151 52.1787 1.88151ZM5.7177 63.7596H5.71072C3.59814 63.7596 1.87986 62.0379 1.87986 59.9211V57.1644H38.5079V59.9211C38.5079 61.4351 39.2052 62.84 40.3542 63.7596H5.7177ZM41.1302 35.9438V62.9897C40.1735 62.2736 39.5818 61.147 39.5818 59.9211V56.6273C39.5818 56.3307 39.3412 56.0902 39.0448 56.0902H6.25473V5.72003C6.25473 3.60403 7.96604 1.88151 10.1002 1.88151H49.1053C48.0041 2.74093 47.259 4.15227 47.259 5.72003V32.7835H44.2911C42.5485 32.7835 41.1302 34.201 41.1302 35.9438ZM68.1209 66.0317C68.1209 67.1821 67.1845 68.1185 66.0342 68.1185H44.2911C43.1408 68.1185 42.2044 67.1821 42.2044 66.0317V35.9438C42.2044 34.7934 43.1408 33.8577 44.2911 33.8577H66.0342C67.1845 33.8577 68.1209 34.7934 68.1209 35.9438V66.0317Z" fill="black"/>
<path d="M64.0666 36.2535H46.2593C45.4208 36.2535 44.7383 36.936 44.7383 37.7745V44.6768C44.7383 45.5153 45.4208 46.1978 46.2593 46.1978H64.0666C64.9051 46.1978 65.5876 45.5153 65.5876 44.6768V37.7745C65.5876 36.936 64.9051 36.2535 64.0666 36.2535ZM64.5134 44.6768C64.5134 44.9229 64.3127 45.1236 64.0666 45.1236H46.2593C46.0132 45.1236 45.8125 44.9229 45.8125 44.6768V37.7745C45.8125 37.5284 46.0132 37.3277 46.2593 37.3277H64.0666C64.3127 37.3277 64.5134 37.5284 64.5134 37.7745V44.6768Z" fill="black"/>
<path d="M49.0574 47.809H46.5538C45.553 47.809 44.7383 48.6237 44.7383 49.6252V51.2288C44.7383 52.2295 45.553 53.0443 46.5538 53.0443H49.0574C50.0588 53.0443 50.8735 52.2295 50.8735 51.2288V49.6252C50.8734 48.6237 50.0587 47.809 49.0574 47.809ZM49.7993 51.2286C49.7993 51.637 49.4664 51.9699 49.0574 51.9699H46.5538C46.1454 51.9699 45.8125 51.637 45.8125 51.2286V49.6251C45.8125 49.216 46.1454 48.8831 46.5538 48.8831H49.0574C49.4664 48.8831 49.7993 49.216 49.7993 49.6251V51.2286Z" fill="black"/>
<path d="M57.115 47.9503C57.1119 47.9489 57.1088 47.9485 57.1056 47.9475C57.1044 47.9468 57.103 47.9468 57.1019 47.9461C57.0971 47.9448 57.0929 47.9437 57.0882 47.9419C56.8795 47.858 56.6529 47.809 56.4145 47.809H53.9109C52.9094 47.809 52.0947 48.6237 52.0947 49.6252V51.2288C52.0947 52.2295 52.9094 53.0443 53.9109 53.0443H56.4145C57.4153 53.0443 58.23 52.2295 58.23 51.2288V49.6252C58.2298 48.8719 57.769 48.2251 57.115 47.9503ZM57.1556 49.6349C57.1556 49.6363 57.155 49.637 57.155 49.6385V49.6454C57.155 49.6468 57.1556 49.6475 57.1556 49.649V51.2288C57.1556 51.6371 56.8227 51.9701 56.4144 51.9701H53.9108C53.5017 51.9701 53.1688 51.6371 53.1688 51.2288V49.6252C53.1688 49.2161 53.5017 48.8832 53.9108 48.8832H56.4144C56.8227 48.8832 57.1556 49.2161 57.1556 49.6252V49.6349Z" fill="black"/>
<path d="M63.7712 47.809H61.2683C60.2669 47.809 59.4521 48.6237 59.4521 49.6252V51.2288C59.4521 52.2295 60.2669 53.0443 61.2683 53.0443H63.7712C64.7727 53.0443 65.5874 52.2295 65.5874 51.2288V49.6252C65.5874 48.6237 64.7727 47.809 63.7712 47.809ZM64.5132 51.2286C64.5132 51.637 64.1803 51.9699 63.7712 51.9699H61.2683C60.8593 51.9699 60.5264 51.637 60.5264 51.2286V49.6251C60.5264 49.216 60.8593 48.8831 61.2683 48.8831H63.7712C64.1803 48.8831 64.5132 49.216 64.5132 49.6251V51.2286Z" fill="black"/>
<path d="M49.0574 54.1476H46.5538C45.553 54.1476 44.7383 54.9623 44.7383 55.9638V57.5673C44.7383 58.5681 45.553 59.3828 46.5538 59.3828H49.0574C50.0588 59.3828 50.8735 58.5681 50.8735 57.5673V55.9638C50.8734 54.9623 50.0587 54.1476 49.0574 54.1476ZM49.7993 57.5672C49.7993 57.9756 49.4664 58.3085 49.0574 58.3085H46.5538C46.1454 58.3085 45.8125 57.9756 45.8125 57.5672V55.9636C45.8125 55.5546 46.1454 55.2216 46.5538 55.2216H49.0574C49.4664 55.2216 49.7993 55.5546 49.7993 55.9636V57.5672Z" fill="black"/>
<path d="M56.4145 54.1476H53.9109C52.9094 54.1476 52.0947 54.9623 52.0947 55.9638V57.5673C52.0947 58.5681 52.9094 59.3828 53.9109 59.3828H56.4145C57.4153 59.3828 58.23 58.5681 58.23 57.5673V55.9638C58.2298 54.9623 57.4151 54.1476 56.4145 54.1476ZM57.1556 57.5672C57.1556 57.9756 56.8227 58.3085 56.4144 58.3085H53.9108C53.5017 58.3085 53.1688 57.9756 53.1688 57.5672V55.9636C53.1688 55.5546 53.5017 55.2216 53.9108 55.2216H56.4144C56.8227 55.2216 57.1556 55.5546 57.1556 55.9636V57.5672Z" fill="black"/>
<path d="M49.0574 60.4861H46.5538C45.553 60.4861 44.7383 61.3009 44.7383 62.3023V63.9059C44.7383 64.9074 45.553 65.7221 46.5538 65.7221H49.0574C50.0588 65.7221 50.8735 64.9074 50.8735 63.9059V62.3023C50.8734 61.3009 50.0587 60.4861 49.0574 60.4861ZM49.7993 63.9058C49.7993 64.3148 49.4664 64.6477 49.0574 64.6477H46.5538C46.1454 64.6477 45.8125 64.3148 45.8125 63.9058V62.3022C45.8125 61.8931 46.1454 61.5602 46.5538 61.5602H49.0574C49.4664 61.5602 49.7993 61.8931 49.7993 62.3022V63.9058Z" fill="black"/>
<path d="M56.4145 60.4861H53.9109C52.9094 60.4861 52.0947 61.3009 52.0947 62.3023V63.9059C52.0947 64.9074 52.9094 65.7221 53.9109 65.7221H56.4145C57.4153 65.7221 58.23 64.9074 58.23 63.9059V62.3023C58.2298 61.3009 57.4151 60.4861 56.4145 60.4861ZM57.1556 63.9058C57.1556 64.3148 56.8227 64.6477 56.4144 64.6477H53.9108C53.5017 64.6477 53.1688 64.3148 53.1688 63.9058V62.3022C53.1688 61.8931 53.5017 61.5602 53.9108 61.5602H56.4144C56.8227 61.5602 57.1556 61.8931 57.1556 62.3022V63.9058Z" fill="black"/>
<path d="M63.7745 54.1503H61.2681C60.2653 54.1503 59.4492 54.963 59.4492 55.9623V63.9037C59.4492 64.9065 60.2653 65.7226 61.2681 65.7226H63.7745C64.7737 65.7226 65.5864 64.9065 65.5864 63.9037V55.9623C65.5864 54.963 64.7737 54.1503 63.7745 54.1503ZM64.5122 63.9037C64.5122 64.3141 64.1815 64.6484 63.7745 64.6484H61.2681C60.8577 64.6484 60.5234 64.3141 60.5234 63.9037V55.9623C60.5234 55.5553 60.8577 55.2245 61.2681 55.2245H63.7745C64.1815 55.2245 64.5122 55.5553 64.5122 55.9623V63.9037Z" fill="black"/>
<path d="M60.7701 37.9941C59.6015 37.9941 58.6504 38.9452 58.6504 40.1138V42.3377C58.6504 43.5062 59.6014 44.4574 60.7701 44.4574C61.9386 44.4574 62.8898 43.5064 62.8898 42.3377V40.1138C62.8896 38.9452 61.9386 37.9941 60.7701 37.9941ZM61.8156 42.3376C61.8156 42.9138 61.3463 43.383 60.7701 43.383C60.1938 43.383 59.7246 42.9138 59.7246 42.3376V40.1137C59.7246 39.5374 60.1938 39.0682 60.7701 39.0682C61.3463 39.0682 61.8156 39.5374 61.8156 40.1137V42.3376Z" fill="black"/>
</g>
<defs>
<clipPath id="clip0_234_620">
<rect width="70" height="70" fill="white"/>
</clipPath>
</defs>
</svg>
