<svg width="70" height="70" viewBox="0 0 70 70" fill="none" xmlns="http://www.w3.org/2000/svg">
<path d="M53.5938 50.3125C55.4059 50.3125 56.875 48.8434 56.875 47.0312C56.875 45.2191 55.4059 43.75 53.5938 43.75C51.7816 43.75 50.3125 45.2191 50.3125 47.0312C50.3125 48.8434 51.7816 50.3125 53.5938 50.3125Z" fill="#F2F2F2"/>
<path d="M63.4375 39.375V32.8125C63.4375 28.5917 60.0031 25.1562 55.7812 25.1562H49.2188V18.5259C49.2188 16.6162 48.2289 14.8892 46.5708 13.9037C44.8766 12.8996 42.8323 12.8625 41.1381 13.7878L39.375 14.6661V11.1004C39.375 8.83965 38.1237 6.86652 36.1102 5.95324C34.1742 5.07605 31.9703 5.40855 30.3592 6.82058L9.4325 25.1562H8.75C4.52813 25.1562 1.09375 28.5917 1.09375 32.8125V61.25C1.09375 65.4707 4.52813 68.9062 8.75 68.9062H55.7812C60.0031 68.9062 63.4375 65.4707 63.4375 61.25V54.6875C66.453 54.6875 68.9062 52.2342 68.9062 49.2187V44.8437C68.9062 41.8282 66.453 39.375 63.4375 39.375ZM42.1498 15.7259C43.1944 15.1561 44.4303 15.1768 45.4541 15.785C46.4417 16.3712 47.0312 17.395 47.0312 18.5259V25.1562H23.2378L42.1498 15.7259ZM31.8008 8.46558C32.772 7.61465 34.0452 7.41886 35.2067 7.94605C36.1637 8.38027 37.1875 9.43683 37.1875 11.1004V15.7565L18.3367 25.1562H12.752L31.8008 8.46558ZM61.25 61.25C61.25 64.2654 58.7967 66.7187 55.7812 66.7187H8.75C5.73453 66.7187 3.28125 64.2654 3.28125 61.25V32.8125C3.28125 29.797 5.73453 27.3437 8.75 27.3437H55.7812C58.7967 27.3437 61.25 29.797 61.25 32.8125V39.375H50.3125C44.8438 39.375 44.8438 45.1379 44.8438 47.0312C44.8438 48.9245 44.8438 54.6875 50.3125 54.6875H61.25V61.25ZM66.7188 49.2187C66.7188 51.0278 65.2466 52.5 63.4375 52.5H50.3125C48.3427 52.5 47.0312 51.5692 47.0312 47.0312C47.0312 42.4932 48.3427 41.5625 50.3125 41.5625H63.4375C65.2466 41.5625 66.7188 43.0346 66.7188 44.8437V49.2187Z" fill="#302D3D"/>
<path d="M62.8709 3.302L58.2017 9.58997C57.7041 10.0876 58.0562 10.9375 58.7595 10.9375H61.2292C61.8975 14.2143 60.4253 17.5568 57.5575 19.2773L56.875 19.6875L59.6061 21.7361C62.7113 19.0389 64.5312 15.109 64.5312 10.9375H67.0261C67.7119 10.9375 68.0553 10.1084 67.5708 9.62278L62.8709 3.302Z" fill="#F14F4A"/>
<path d="M53.7144 18.34L53.0308 18.7501C52.718 18.9383 52.52 19.2686 52.5014 19.6317C52.4828 19.9959 52.6458 20.3448 52.9367 20.5636L57.3117 23.8448C57.5053 23.9903 57.7372 24.0636 57.968 24.0636C58.1791 24.0636 58.3902 24.0023 58.575 23.8798L58.7675 23.7519C62.7564 21.0919 65.2524 16.7705 65.586 12.0323H67.0253C67.7822 12.0323 68.4582 11.5806 68.7469 10.8817C69.0236 10.2123 68.8913 9.45326 68.41 8.92061L63.416 2.2028C62.8964 1.50389 62.0991 1.10358 61.2296 1.10358H61.2285C60.3578 1.10467 59.5616 1.50498 59.0432 2.20498L54.0797 8.8878C53.5941 9.42483 53.4585 10.1915 53.7385 10.8686C54.0305 11.5751 54.7141 12.0312 55.4786 12.0312H56.9967C57.175 14.5556 55.9249 17.0133 53.7144 18.34ZM59.0617 10.9353C59.0563 10.8161 59.0311 10.6947 58.983 10.5776L58.9622 10.5273C58.9622 10.5262 58.9611 10.5262 58.9611 10.5251C58.8627 10.2812 58.6844 10.092 58.4689 9.97498C58.2535 9.85795 58.4689 9.97389 58.4678 9.97389C58.4066 9.94217 58.3421 9.91373 58.2764 9.89404C58.1649 9.85905 58.0457 9.84811 57.9275 9.84373H56.0944L60.7997 3.50764C60.9386 3.31951 61.1289 3.29108 61.2296 3.29108C61.3302 3.29108 61.5205 3.31951 61.6616 3.50764L66.3735 9.84373H64.5316C63.9278 9.84373 63.4378 10.3326 63.4378 10.9375C63.4378 15.1845 61.4133 19.1395 57.9964 21.6234L55.5191 19.764C58.2699 17.7526 59.6655 14.3226 59.0617 10.9353Z" fill="#302D3D"/>
<path d="M57.948 10.9375C58.6152 14.2143 57.1441 17.5568 54.2763 19.2773L53.5938 19.6875L57.9688 22.9687L58.1612 22.8407C62.1403 20.1873 64.5312 15.7204 64.5312 10.9375H67.0261C67.7119 10.9375 68.0553 10.1084 67.5708 9.62278L62.5395 2.85465C61.8877 1.97747 60.573 1.97747 59.9211 2.85575L54.9205 9.58997C54.4228 10.0876 54.775 10.9375 55.4783 10.9375H57.948L57.9688 10.9878L57.948 10.9375Z" fill="#F14F4A"/>
<path d="M62.3438 53.5937V61.2499C62.3438 64.8746 59.4059 67.8124 55.7812 67.8124H8.75C5.12531 67.8124 2.1875 64.8746 2.1875 61.2499V32.8124C2.1875 29.1878 5.12531 26.2499 8.75 26.2499H55.7812C59.4059 26.2499 62.3438 29.1878 62.3438 32.8124V40.4687V53.5937Z" fill="#C37F50"/>
<path d="M52.0264 67.8124H55.7812C59.4059 67.8124 62.3438 64.8746 62.3438 61.2499V53.5937V40.4687V32.8124C62.3438 29.1878 59.4059 26.2499 55.7812 26.2499H16.4062C16.4062 46.5128 31.6258 63.4626 52.0264 67.8124Z" fill="#DCA764"/>
<path d="M63.4375 53.5938H50.3125C46.6878 53.5938 45.9375 50.6559 45.9375 47.0312C45.9375 43.4066 46.6878 40.4688 50.3125 40.4688H63.4375C65.8536 40.4688 67.8125 42.4277 67.8125 44.8438V49.2188C67.8125 51.6348 65.8536 53.5938 63.4375 53.5938Z" fill="#C37F50"/>
<path d="M20.751 25.1647L41.6174 14.5458C44.4819 12.9575 48.0006 15.0258 48.0006 18.2962V25.1647H20.751Z" fill="#30AA87"/>
<path d="M31.0799 7.64309L10.9512 25.1715H18.3438L38.2811 15.3267V11.1015C38.2811 7.24497 33.9236 5.15153 31.0799 7.64309Z" fill="#30AA87"/>
<path d="M63 54H50.5C49 54 45.5 53.2507 45.5 46.5C45.5 41.0445 48.5 40 50.5 40.016L63 40.016" stroke="#302D3D"/>
<circle cx="53" cy="47" r="3.5" stroke="#302D3D"/>
</svg>
