<svg width="70" height="70" viewBox="0 0 70 70" fill="none" xmlns="http://www.w3.org/2000/svg">
<path d="M2.2168 12.0909V64.453C2.2168 66.3409 3.74407 67.8788 5.64255 67.8788H64.3683C66.2562 67.8788 67.7941 66.3515 67.7941 64.453V12.0909H2.2168Z" fill="#D7E6EF"/>
<path d="M67.7835 5.54694C67.7835 3.65906 66.2456 2.12119 64.3577 2.12119H5.64255C3.75468 2.12119 2.2168 3.65906 2.2168 5.54694V12.0909H67.7835V5.54694Z" fill="#5D5B68"/>
<path d="M9.74676 9.18483C10.8948 9.18483 11.8255 8.25412 11.8255 7.10604C11.8255 5.95796 10.8948 5.02725 9.74676 5.02725C8.59867 5.02725 7.66797 5.95796 7.66797 7.10604C7.66797 8.25412 8.59867 9.18483 9.74676 9.18483Z" fill="#4EC4A5"/>
<path d="M17.362 9.18483C18.5101 9.18483 19.4408 8.25412 19.4408 7.10604C19.4408 5.95796 18.5101 5.02725 17.362 5.02725C16.2139 5.02725 15.2832 5.95796 15.2832 7.10604C15.2832 8.25412 16.2139 9.18483 17.362 9.18483Z" fill="#4EC4A5"/>
<path d="M24.9772 9.18483C26.1253 9.18483 27.056 8.25412 27.056 7.10604C27.056 5.95796 26.1253 5.02725 24.9772 5.02725C23.8291 5.02725 22.8984 5.95796 22.8984 7.10604C22.8984 8.25412 23.8291 9.18483 24.9772 9.18483Z" fill="#4EC4A5"/>
<path d="M54.791 38.7333H60.8047V62.3848H54.791V38.7333Z" fill="#5F6FE7"/>
<path d="M58.1637 38.7333V59.203H54.791V62.3848H60.8047V38.7333H58.1637Z" fill="#505FE1"/>
<path d="M41.7773 19.1015H47.3031V24.6273H41.7773V19.1015Z" fill="#2C92BF"/>
<path d="M45.2349 19.1015V22.5591H41.7773V24.6273H47.3137V19.1015H45.2349Z" fill="#1F81A3"/>
<path d="M41.7773 28.1591H47.3031V33.6848H41.7773V28.1591Z" fill="#2C92BF"/>
<path d="M45.2349 28.1591V31.6272H41.7773V33.6954H47.3137V28.1591H45.2349Z" fill="#1F81A3"/>
<path d="M51.6621 62.3922H45.6485V53.7589H51.6621V62.3922Z" fill="#F14F4A"/>
<path d="M49.0212 60.6666H45.6484V62.3848H51.6621V53.7515H49.0212V60.6666Z" fill="#D33D24"/>
<path d="M42.5234 62.3891H36.5098V44.5285H42.5234V62.3891Z" fill="#F4B601"/>
<path d="M39.8784 44.5242V60.6136H36.4951V62.3848H42.5194V44.5242H39.8784Z" fill="#F09D00"/>
<path d="M27.3535 56.3181H33.3672V62.3848H27.3535V56.3181Z" fill="#4EC4A5"/>
<path d="M30.7262 56.3181V60.5181H27.3535V62.3848H33.3778V56.3181H30.7262Z" fill="#30AA87"/>
<path d="M24.2266 62.3901H18.2129V52.0174H24.2266V62.3901Z" fill="#F0A696"/>
<path d="M21.5837 52.0121V60.6878H18.2109V62.3848H24.2246V52.0121H21.5837Z" fill="#E08C7E"/>
<path d="M13.449 31.4257C13.449 27.0666 16.9809 23.5348 21.34 23.5348V17.5106C13.6506 17.5212 7.4248 23.747 7.4248 31.4257C7.4248 35.2651 8.9839 38.7439 11.4975 41.2682L15.7612 37.0045C14.3293 35.5833 13.449 33.6106 13.449 31.4257Z" fill="#5F6FE7"/>
<path d="M29.2197 31.4257C29.2197 35.7848 25.6878 39.3166 21.3288 39.3166C19.1545 39.3166 17.1818 38.4363 15.75 37.0045L11.4863 41.2681C14 43.7818 17.4788 45.3409 21.3288 45.3409C29.0075 45.3409 35.2439 39.1151 35.2439 31.4257H29.2197Z" fill="#F14F4A"/>
<path d="M21.3398 17.5212V23.5454C25.6989 23.5454 29.2308 27.0772 29.2308 31.4363H35.255C35.2444 23.7469 29.0186 17.5212 21.3398 17.5212Z" fill="#F8CE01"/>
<path d="M11.4971 42.0636C11.285 42.0636 11.0835 41.9788 10.935 41.8303C8.15618 39.0515 6.62891 35.3606 6.62891 31.4258C6.62891 23.3121 13.2259 16.7151 21.3395 16.7151C21.7744 16.7151 22.135 17.0758 22.135 17.5106V23.5348C22.135 23.9697 21.7744 24.3303 21.3395 24.3303C17.4259 24.3303 14.2441 27.5121 14.2441 31.4258C14.2441 33.3242 14.9865 35.1061 16.3228 36.4424C16.4713 36.5909 16.5562 36.7924 16.5562 37.0045C16.5562 37.2167 16.4713 37.4182 16.3228 37.5667L12.0592 41.8303C11.9107 41.9788 11.7092 42.0636 11.4971 42.0636ZM20.5441 18.3379C13.6819 18.7515 8.21982 24.4682 8.21982 31.4258C8.21982 34.6606 9.38648 37.7152 11.5183 40.1227L14.6577 36.9833C13.3638 35.4242 12.6531 33.4833 12.6531 31.4258C12.6531 26.9076 16.1213 23.1848 20.5441 22.7818V18.3379Z" fill="black"/>
<path d="M21.3391 46.1364C17.4148 46.1364 13.7133 44.6091 10.9345 41.8303C10.786 41.6818 10.7012 41.4803 10.7012 41.2682C10.7012 41.0561 10.786 40.8546 10.9345 40.7061L15.1981 36.4424C15.5057 36.1349 16.0148 36.1349 16.3224 36.4424C17.6587 37.7788 19.4406 38.5212 21.3391 38.5212C25.2527 38.5212 28.4345 35.3394 28.4345 31.4258C28.4345 30.9909 28.7951 30.6303 29.23 30.6303H35.2542C35.6891 30.6303 36.0497 30.9909 36.0497 31.4258C36.0391 39.5394 29.4421 46.1364 21.3391 46.1364ZM12.6421 41.247C15.0391 43.3788 18.1042 44.5455 21.3391 44.5455C28.3072 44.5455 34.0239 39.0833 34.4269 32.2212H29.983C29.58 36.6439 25.8572 40.1121 21.3391 40.1121C19.2815 40.1121 17.3406 39.4015 15.7815 38.1076L12.6421 41.247Z" fill="black"/>
<path d="M35.2438 32.2212H29.2196C28.7847 32.2212 28.4241 31.8606 28.4241 31.4258C28.4241 27.5121 25.2423 24.3303 21.3287 24.3303C20.8938 24.3303 20.5332 23.9697 20.5332 23.5348V17.5106C20.5332 17.0758 20.8938 16.7151 21.3287 16.7151C29.4423 16.7151 36.0393 23.3121 36.0393 31.4258C36.0393 31.8712 35.6893 32.2212 35.2438 32.2212ZM29.9832 30.6303H34.4271C34.0347 24.0333 28.7317 18.7303 22.1347 18.3379V22.7818C26.2817 23.1636 29.6014 26.4833 29.9832 30.6303Z" fill="black"/>
<path d="M62.1199 21.2121H51.0259C50.5911 21.2121 50.2305 20.8515 50.2305 20.4167C50.2305 19.9818 50.5911 19.6212 51.0259 19.6212H62.1199C62.5547 19.6212 62.9153 19.9818 62.9153 20.4167C62.9153 20.8515 62.5547 21.2121 62.1199 21.2121Z" fill="black"/>
<path d="M62.1203 24.4257H55.0142C54.5794 24.4257 54.2188 24.0651 54.2188 23.6303C54.2188 23.1954 54.5794 22.8348 55.0142 22.8348H62.1203C62.5551 22.8348 62.9157 23.1954 62.9157 23.6303C62.9157 24.0651 62.5551 24.4257 62.1203 24.4257Z" fill="black"/>
<path d="M47.3134 25.4227H41.7876C41.3528 25.4227 40.9922 25.0621 40.9922 24.6273V19.1015C40.9922 18.6667 41.3528 18.3061 41.7876 18.3061H47.3134C47.7482 18.3061 48.1089 18.6667 48.1089 19.1015V24.6273C48.1089 25.0727 47.7482 25.4227 47.3134 25.4227ZM42.5725 23.8318H46.5073V19.897H42.5725V23.8318Z" fill="black"/>
<path d="M62.1199 30.2697H51.0259C50.5911 30.2697 50.2305 29.9091 50.2305 29.4742C50.2305 29.0394 50.5911 28.6788 51.0259 28.6788H62.1199C62.5547 28.6788 62.9153 29.0394 62.9153 29.4742C62.9153 29.9091 62.5547 30.2697 62.1199 30.2697Z" fill="black"/>
<path d="M62.1203 33.4939H55.0142C54.5794 33.4939 54.2188 33.1333 54.2188 32.6985C54.2188 32.2636 54.5794 31.903 55.0142 31.903H62.1203C62.5551 31.903 62.9157 32.2636 62.9157 32.6985C62.9157 33.1333 62.5551 33.4939 62.1203 33.4939Z" fill="black"/>
<path d="M47.3134 34.4909H41.7876C41.3528 34.4909 40.9922 34.1303 40.9922 33.6955V28.1697C40.9922 27.7348 41.3528 27.3742 41.7876 27.3742H47.3134C47.7482 27.3742 48.1089 27.7348 48.1089 28.1697V33.6955C48.1089 34.1303 47.7482 34.4909 47.3134 34.4909ZM42.5725 32.9H46.5073V28.9545H42.5725V32.9Z" fill="black"/>
<path d="M51.6626 63.1803H45.649C45.2141 63.1803 44.8535 62.8197 44.8535 62.3848V53.7515C44.8535 53.3167 45.2141 52.9561 45.649 52.9561H51.6626C52.0975 52.9561 52.4581 53.3167 52.4581 53.7515V62.3848C52.4581 62.8303 52.1081 63.1803 51.6626 63.1803ZM46.4444 61.5894H50.8672V54.547H46.4444V61.5894Z" fill="black"/>
<path d="M24.2251 63.1803H18.2115C17.7766 63.1803 17.416 62.8197 17.416 62.3848V52.0121C17.416 51.5773 17.7766 51.2166 18.2115 51.2166H24.2251C24.66 51.2166 25.0206 51.5773 25.0206 52.0121V62.3848C25.0206 62.8303 24.6706 63.1803 24.2251 63.1803ZM19.0069 61.5894H23.4297V52.8076H19.0069V61.5894Z" fill="black"/>
<path d="M60.8052 63.1803H54.7915C54.3567 63.1803 53.9961 62.8197 53.9961 62.3848V38.7333C53.9961 38.2985 54.3567 37.9379 54.7915 37.9379H60.8052C61.24 37.9379 61.6006 38.2985 61.6006 38.7333V62.3848C61.6006 62.8303 61.2506 63.1803 60.8052 63.1803ZM55.587 61.5894H60.0097V39.5288H55.587V61.5894Z" fill="black"/>
<path d="M33.3774 63.1803H27.3638C26.929 63.1803 26.5684 62.8197 26.5684 62.3848V56.3182C26.5684 55.8833 26.929 55.5227 27.3638 55.5227H33.3774C33.8123 55.5227 34.1729 55.8833 34.1729 56.3182V62.3848C34.1729 62.8303 33.8123 63.1803 33.3774 63.1803ZM28.1487 61.5894H32.5714V57.1136H28.1487V61.5894Z" fill="black"/>
<path d="M42.52 63.1803H36.5064C36.0715 63.1803 35.7109 62.8197 35.7109 62.3848V44.5242C35.7109 44.0894 36.0715 43.7288 36.5064 43.7288H42.52C42.9549 43.7288 43.3155 44.0894 43.3155 44.5242V62.3848C43.3155 62.8303 42.9549 63.1803 42.52 63.1803ZM37.2912 61.5894H41.714V45.3197H37.2912V61.5894Z" fill="black"/>
<path d="M62.5763 63.1803H16.44C16.0051 63.1803 15.6445 62.8197 15.6445 62.3848C15.6445 61.95 16.0051 61.5894 16.44 61.5894H62.5763C63.0112 61.5894 63.3718 61.95 63.3718 62.3848C63.3718 62.8197 63.0112 63.1803 62.5763 63.1803Z" fill="black"/>
<path d="M64.3573 68.6742H5.64211C3.31938 68.6742 1.4209 66.7864 1.4209 64.453V12.0909C1.4209 11.656 1.7815 11.2954 2.21635 11.2954H67.783C68.2179 11.2954 68.5785 11.656 68.5785 12.0909V64.453C68.5785 66.7864 66.6906 68.6742 64.3573 68.6742ZM3.01181 12.8863V64.453C3.01181 65.906 4.18908 67.0833 5.64211 67.0833H64.3679C65.8209 67.0833 66.9982 65.906 66.9982 64.453V12.8863H3.01181Z" fill="black"/>
<path d="M67.783 12.8864H2.21635C1.7815 12.8864 1.4209 12.5257 1.4209 12.0909V5.54696C1.4209 3.22423 3.31938 1.32574 5.64211 1.32574H64.3573C66.68 1.32574 68.5785 3.22423 68.5785 5.54696V12.0909C68.5785 12.5257 68.2179 12.8864 67.783 12.8864ZM3.01181 11.2954H66.9876V5.54696C66.9876 4.09393 65.8103 2.91665 64.3573 2.91665H5.64211C4.18908 2.91665 3.01181 4.09393 3.01181 5.54696V11.2954Z" fill="black"/>
<path d="M9.74631 9.9803C8.16601 9.9803 6.87207 8.69696 6.87207 7.10605C6.87207 5.52575 8.1554 4.23181 9.74631 4.23181C11.3266 4.23181 12.6206 5.51514 12.6206 7.10605C12.6099 8.68636 11.3266 9.9803 9.74631 9.9803ZM9.74631 5.82272C9.04631 5.82272 8.46298 6.39545 8.46298 7.10605C8.46298 7.80605 9.03571 8.38939 9.74631 8.38939C10.4569 8.38939 11.0296 7.81666 11.0296 7.10605C11.019 6.40605 10.4463 5.82272 9.74631 5.82272Z" fill="black"/>
<path d="M17.3615 9.9803C15.7812 9.9803 14.4873 8.69696 14.4873 7.10605C14.4873 5.52575 15.7706 4.23181 17.3615 4.23181C18.9419 4.23181 20.2358 5.51514 20.2358 7.10605C20.2252 8.68636 18.9419 9.9803 17.3615 9.9803ZM17.3615 5.82272C16.6615 5.82272 16.0782 6.39545 16.0782 7.10605C16.0782 7.80605 16.6509 8.38939 17.3615 8.38939C18.0722 8.38939 18.6449 7.81666 18.6449 7.10605C18.6343 6.40605 18.0615 5.82272 17.3615 5.82272Z" fill="black"/>
<path d="M24.9768 9.9803C23.3965 9.9803 22.1025 8.69696 22.1025 7.10605C22.1025 5.52575 23.3859 4.23181 24.9768 4.23181C26.5571 4.23181 27.851 5.51514 27.851 7.10605C27.8404 8.68636 26.5571 9.9803 24.9768 9.9803ZM24.9768 5.82272C24.2662 5.82272 23.6934 6.39545 23.6934 7.10605C23.6934 7.80605 24.2662 8.38939 24.9768 8.38939C25.6768 8.38939 26.2601 7.81666 26.2601 7.10605C26.2495 6.40605 25.6768 5.82272 24.9768 5.82272Z" fill="black"/>
</svg>
