<svg width="204" height="60" viewBox="0 0 204 60" fill="none" xmlns="http://www.w3.org/2000/svg">
<path d="M196.422 59.5056H7.5791C3.42645 59.5056 0.0253906 56.185 0.0253906 52.1306V7.88062C0.0253906 3.82621 3.42645 0.505616 7.5791 0.505616H196.422C200.574 0.505616 203.975 3.82621 203.975 7.88062V52.1306C203.975 56.185 200.574 59.5056 196.422 59.5056Z" fill="black"/>
<path d="M196.422 1.68746C199.919 1.68746 202.765 4.46599 202.765 7.88062V52.1306C202.765 55.5452 199.919 58.3238 196.422 58.3238H7.5791C4.08173 58.3238 1.23587 55.5452 1.23587 52.1306V7.88062C1.23587 4.46599 4.08173 1.68746 7.5791 1.68746H196.422ZM196.422 0.505616H7.5791C3.42645 0.505616 0.0253906 3.82621 0.0253906 7.88062V52.1306C0.0253906 56.185 3.42645 59.5056 7.5791 59.5056H196.422C200.574 59.5056 203.975 56.185 203.975 52.1306V7.88062C203.975 3.82621 200.574 0.505616 196.422 0.505616Z" fill="#A6A6A6"/>
<path d="M71.6607 15.6151C71.6607 16.8467 71.283 17.8332 70.539 18.5688C69.6835 19.4409 68.5693 19.8797 67.204 19.8797C65.8991 19.8797 64.7849 19.4335 63.8709 18.5541C62.955 17.6617 62.498 16.5665 62.498 15.2556C62.498 13.9447 62.955 12.8495 63.8709 11.9645C64.7849 11.0777 65.8991 10.6315 67.204 10.6315C67.8536 10.6315 68.473 10.7624 69.0641 11.0058C69.6533 11.251 70.133 11.5828 70.4804 11.9922L69.6911 12.7702C69.0849 12.0714 68.2596 11.7267 67.204 11.7267C66.2522 11.7267 65.427 12.0512 64.7264 12.7057C64.0333 13.3621 63.6859 14.212 63.6859 15.2556C63.6859 16.2992 64.0333 17.1565 64.7264 17.8129C65.427 18.46 66.2522 18.7919 67.204 18.7919C68.2143 18.7919 69.0641 18.46 69.7345 17.8055C70.1764 17.3722 70.4276 16.7748 70.4936 16.0115H67.204V14.9458H71.5927C71.6456 15.1763 71.6607 15.3994 71.6607 15.6151Z" fill="white" stroke="white" stroke-width="0.16" stroke-miterlimit="10"/>
<path d="M78.6235 11.9202H74.501V14.7227H78.2175V15.7884H74.501V18.5909H78.6235V19.6769H73.334V10.8342H78.6235V11.9202Z" fill="white" stroke="white" stroke-width="0.16" stroke-miterlimit="10"/>
<path d="M83.5374 19.6769H82.3704V11.9202H79.8418V10.8342H86.0679V11.9202H83.5374V19.6769Z" fill="white" stroke="white" stroke-width="0.16" stroke-miterlimit="10"/>
<path d="M90.5732 19.6769V10.8342H91.7384V19.6769H90.5732Z" fill="white" stroke="white" stroke-width="0.16" stroke-miterlimit="10"/>
<path d="M96.9036 19.6769H95.746V11.9202H93.208V10.8342H99.4417V11.9202H96.9036V19.6769Z" fill="white" stroke="white" stroke-width="0.16" stroke-miterlimit="10"/>
<path d="M111.229 18.5393C110.336 19.4335 109.23 19.8797 107.91 19.8797C106.582 19.8797 105.475 19.4335 104.582 18.5393C103.691 17.6469 103.247 16.5518 103.247 15.2556C103.247 13.9594 103.691 12.8643 104.582 11.9719C105.475 11.0777 106.582 10.6315 107.91 10.6315C109.222 10.6315 110.329 11.0777 111.222 11.9793C112.121 12.879 112.565 13.9668 112.565 15.2556C112.565 16.5518 112.121 17.6469 111.229 18.5393ZM105.445 17.7981C106.117 18.46 106.935 18.7919 107.91 18.7919C108.876 18.7919 109.702 18.46 110.366 17.7981C111.037 17.1362 111.377 16.2863 111.377 15.2556C111.377 14.2249 111.037 13.375 110.366 12.7131C109.702 12.0512 108.876 11.7193 107.91 11.7193C106.935 11.7193 106.117 12.0512 105.445 12.7131C104.775 13.375 104.435 14.2249 104.435 15.2556C104.435 16.2863 104.775 17.1362 105.445 17.7981Z" fill="white" stroke="white" stroke-width="0.16" stroke-miterlimit="10"/>
<path d="M114.201 19.6769V10.8342H115.617L120.021 17.7114H120.072L120.021 16.0115V10.8342H121.186V19.6769H119.97L115.359 12.4604H115.308L115.359 14.1677V19.6769H114.201Z" fill="white" stroke="white" stroke-width="0.16" stroke-miterlimit="10"/>
<path d="M102.96 32.5905C99.4115 32.5905 96.5128 35.2271 96.5128 38.8648C96.5128 42.473 99.4115 45.1372 102.96 45.1372C106.516 45.1372 109.415 42.473 109.415 38.8648C109.415 35.2271 106.516 32.5905 102.96 32.5905ZM102.96 42.6666C101.013 42.6666 99.3379 41.0976 99.3379 38.8648C99.3379 36.6025 101.013 35.0612 102.96 35.0612C104.907 35.0612 106.589 36.6025 106.589 38.8648C106.589 41.0976 104.907 42.6666 102.96 42.6666ZM88.893 32.5905C85.3371 32.5905 82.4459 35.2271 82.4459 38.8648C82.4459 42.473 85.3371 45.1372 88.893 45.1372C92.447 45.1372 95.3401 42.473 95.3401 38.8648C95.3401 35.2271 92.447 32.5905 88.893 32.5905ZM88.893 42.6666C86.9441 42.6666 85.2634 41.0976 85.2634 38.8648C85.2634 36.6025 86.9441 35.0612 88.893 35.0612C90.84 35.0612 92.515 36.6025 92.515 38.8648C92.515 41.0976 90.84 42.6666 88.893 42.6666ZM72.154 34.5136V37.1796H78.6747C78.484 38.6694 77.9741 39.7646 77.1923 40.5279C76.2405 41.4497 74.7581 42.473 72.154 42.473C68.1411 42.473 64.9987 39.311 64.9987 35.393C64.9987 31.4751 68.1411 28.313 72.154 28.313C74.3238 28.313 75.9025 29.1409 77.0677 30.2139L78.992 28.3352C77.3623 26.8159 75.1944 25.6488 72.154 25.6488C66.6511 25.6488 62.0264 30.0203 62.0264 35.393C62.0264 40.7657 66.6511 45.1372 72.154 45.1372C75.1283 45.1372 77.3623 44.1859 79.1185 42.4011C80.9182 40.644 81.479 38.1734 81.479 36.1785C81.479 35.559 81.4262 34.9892 81.3317 34.5136H72.154ZM140.602 36.5804C140.071 35.1773 138.434 32.5905 135.099 32.5905C131.794 32.5905 129.043 35.1331 129.043 38.8648C129.043 42.379 131.766 45.1372 135.416 45.1372C138.368 45.1372 140.071 43.3801 140.772 42.3569L138.581 40.9317C137.85 41.9752 136.855 42.6666 135.416 42.6666C133.987 42.6666 132.961 42.0268 132.304 40.7657L140.898 37.2939L140.602 36.5804ZM131.84 38.6694C131.766 36.2504 133.764 35.0114 135.195 35.0114C136.317 35.0114 137.269 35.559 137.586 36.3426L131.84 38.6694ZM124.854 44.7556H127.679V26.3181H124.854V44.7556ZM120.228 33.9881H120.133C119.499 33.2543 118.288 32.5905 116.755 32.5905C113.537 32.5905 110.595 35.3488 110.595 38.8851C110.595 42.4011 113.537 45.1372 116.755 45.1372C118.288 45.1372 119.499 44.468 120.133 43.712H120.228V44.6118C120.228 47.0105 118.915 48.2993 116.798 48.2993C115.072 48.2993 114.002 47.0824 113.56 46.0591L111.103 47.0603C111.811 48.7233 113.686 50.7699 116.798 50.7699C120.111 50.7699 122.905 48.8671 122.905 44.2375V32.9722H120.228V33.9881ZM116.997 42.6666C115.05 42.6666 113.42 41.0755 113.42 38.8851C113.42 36.6744 115.05 35.0612 116.997 35.0612C118.915 35.0612 120.428 36.6744 120.428 38.8851C120.428 41.0755 118.915 42.6666 116.997 42.6666ZM153.828 26.3181H147.072V44.7556H149.889V37.7696H153.828C156.958 37.7696 160.026 35.559 160.026 32.0429C160.026 28.5287 156.95 26.3181 153.828 26.3181ZM153.902 35.205H149.889V28.8827H153.902C156.006 28.8827 157.207 30.5882 157.207 32.0429C157.207 33.47 156.006 35.205 153.902 35.205ZM171.319 32.5555C169.283 32.5555 167.166 33.4331 166.296 35.3783L168.796 36.4016C169.334 35.3783 170.324 35.0464 171.37 35.0464C172.832 35.0464 174.314 35.9037 174.337 37.4175V37.6111C173.827 37.3234 172.735 36.8975 171.393 36.8975C168.7 36.8975 165.956 38.3449 165.956 41.046C165.956 43.5166 168.162 45.1077 170.641 45.1077C172.537 45.1077 173.583 44.2725 174.24 43.3009H174.337V44.7261H177.058V37.6535C177.058 34.3845 174.558 32.5555 171.319 32.5555ZM170.979 42.6592C170.058 42.6592 168.773 42.2131 168.773 41.0976C168.773 39.6705 170.375 39.1229 171.761 39.1229C173.002 39.1229 173.583 39.3903 174.337 39.7424C174.116 41.4497 172.611 42.6592 170.979 42.6592ZM186.972 32.9593L183.734 40.9519H183.637L180.289 32.9593H177.251L182.281 44.1287L179.411 50.344H182.355L190.107 32.9593H186.972ZM161.575 44.7556H164.4V26.3181H161.575V44.7556Z" fill="white"/>
<path d="M15.7904 11.6253C15.3467 12.0789 15.0898 12.785 15.0898 13.6995V46.3191C15.0898 47.2336 15.3467 47.9398 15.7904 48.3934L15.9 48.4929L34.6218 30.2214V29.7899L15.9 11.5184L15.7904 11.6253Z" fill="url(#paint0_linear_240_5271)"/>
<path d="M40.8548 36.3149L34.6211 30.2213V29.7899L40.8623 23.6963L41.0021 23.7756L48.3934 27.8816C50.5028 29.0469 50.5028 30.9644 48.3934 32.137L41.0021 36.2357L40.8548 36.3149Z" fill="url(#paint1_linear_240_5271)"/>
<path d="M41.0024 36.2356L34.6214 30.0056L15.79 48.3933C16.4906 49.1124 17.6331 49.199 18.9324 48.48L41.0024 36.2356Z" fill="url(#paint2_linear_240_5271)"/>
<path d="M41.0024 23.7756L18.9324 11.5312C17.6331 10.8196 16.4906 10.9062 15.79 11.6253L34.6214 30.0056L41.0024 23.7756Z" fill="url(#paint3_linear_240_5271)"/>
<defs>
<linearGradient id="paint0_linear_240_5271" x1="32.9596" y1="46.6588" x2="8.21261" y2="21.3122" gradientUnits="userSpaceOnUse">
<stop stop-color="#00A0FF"/>
<stop offset="0.0066" stop-color="#00A1FF"/>
<stop offset="0.2601" stop-color="#00BEFF"/>
<stop offset="0.5122" stop-color="#00D2FF"/>
<stop offset="0.7604" stop-color="#00DFFF"/>
<stop offset="1" stop-color="#00E3FF"/>
</linearGradient>
<linearGradient id="paint1_linear_240_5271" x1="51.1401" y1="30.0036" x2="14.5849" y2="30.0036" gradientUnits="userSpaceOnUse">
<stop stop-color="#FFE000"/>
<stop offset="0.4087" stop-color="#FFBD00"/>
<stop offset="0.7754" stop-color="#FFA500"/>
<stop offset="1" stop-color="#FF9C00"/>
</linearGradient>
<linearGradient id="paint2_linear_240_5271" x1="37.5326" y1="26.6189" x2="3.97375" y2="-7.75318" gradientUnits="userSpaceOnUse">
<stop stop-color="#FF3A44"/>
<stop offset="1" stop-color="#C31162"/>
</linearGradient>
<linearGradient id="paint3_linear_240_5271" x1="11.0498" y1="59.2457" x2="26.0353" y2="43.8972" gradientUnits="userSpaceOnUse">
<stop stop-color="#32A071"/>
<stop offset="0.0685" stop-color="#2DA771"/>
<stop offset="0.4762" stop-color="#15CF74"/>
<stop offset="0.8009" stop-color="#06E775"/>
<stop offset="1" stop-color="#00F076"/>
</linearGradient>
</defs>
</svg>
