<svg width="20" height="16" viewBox="0 0 20 16" fill="none" xmlns="http://www.w3.org/2000/svg">
<path d="M18 0.000244141H2C0.9 0.000244141 0.00999999 0.900244 0.00999999 2.00024L0 14.0002C0 15.1002 0.9 16.0002 2 16.0002H18C19.1 16.0002 20 15.1002 20 14.0002V2.00024C20 0.900244 19.1 0.000244141 18 0.000244141ZM17.6 4.25024L10.53 8.67024C10.21 8.87024 9.79 8.87024 9.47 8.67024L2.4 4.25024C2.29973 4.19395 2.21192 4.11791 2.14189 4.0267C2.07186 3.93549 2.02106 3.83102 1.99258 3.71961C1.96409 3.60821 1.9585 3.49218 1.97616 3.37855C1.99381 3.26492 2.03434 3.15606 2.09528 3.05855C2.15623 2.96103 2.23632 2.8769 2.33073 2.81124C2.42513 2.74558 2.53187 2.69976 2.6445 2.67654C2.75712 2.65333 2.87328 2.65321 2.98595 2.67619C3.09863 2.69917 3.20546 2.74478 3.3 2.81024L10 7.00024L16.7 2.81024C16.7945 2.74478 16.9014 2.69917 17.014 2.67619C17.1267 2.65321 17.2429 2.65333 17.3555 2.67654C17.4681 2.69976 17.5749 2.74558 17.6693 2.81124C17.7637 2.8769 17.8438 2.96103 17.9047 3.05855C17.9657 3.15606 18.0062 3.26492 18.0238 3.37855C18.0415 3.49218 18.0359 3.60821 18.0074 3.71961C17.9789 3.83102 17.9281 3.93549 17.8581 4.0267C17.7881 4.11791 17.7003 4.19395 17.6 4.25024Z" fill="white"/>
</svg>
