<svg width="271" height="225" viewBox="0 0 271 225" fill="none" xmlns="http://www.w3.org/2000/svg">
<g filter="url(#filter0_d_240_5622)">
<ellipse cx="135.153" cy="217.626" rx="98.9047" ry="0.781512" fill="#C4C4C4" fill-opacity="0.01"/>
</g>
<rect x="0.0371094" y="0.71286" width="270.229" height="188.952" rx="3.50068" fill="#F1F1F1"/>
<path d="M0.0371094 162.746H270.267V186.164C270.267 188.098 268.699 189.665 266.766 189.665H3.53777C1.6044 189.665 0.0371094 188.098 0.0371094 186.164V162.746Z" fill="#F5F5F5"/>
<g filter="url(#filter1_d_240_5622)">
<path d="M89.651 222.923C89.1714 222.443 89.2168 221.012 90.2588 220.231H180.046C181.088 221.012 181.175 222.141 180.654 222.923C180.115 223.731 177.441 223.907 176.051 223.878H94.2532C92.8639 223.907 90.4324 223.704 89.651 222.923Z" fill="url(#paint0_linear_240_5622)"/>
</g>
<path d="M104.412 189.665C104.412 189.665 101.72 209.029 100.939 211.113C100.157 213.197 96.3366 215.455 95.6419 215.976C94.9471 216.497 92.5158 218.234 91.4738 219.015C90.4319 219.797 89.1455 220.697 89.6503 221.707C90.0845 222.576 92.8632 222.691 94.2526 222.662H140.188H176.051C177.44 222.691 180.219 222.576 180.653 221.707C181.158 220.697 179.872 219.797 178.83 219.015C177.788 218.234 175.356 216.497 174.661 215.976C173.967 215.455 170.146 213.197 169.365 211.113C168.583 209.029 165.891 189.665 165.891 189.665H140.188H104.412Z" fill="#F5F5F5"/>
<path d="M104.412 189.665C104.412 189.665 101.72 209.029 100.939 211.113C100.157 213.197 96.3366 215.455 95.6419 215.976C94.9471 216.497 92.5158 218.234 91.4738 219.015C90.4319 219.797 89.1455 220.697 89.6503 221.707C90.0845 222.576 92.8632 222.691 94.2526 222.662H140.188H176.051C177.44 222.691 180.219 222.576 180.653 221.707C181.158 220.697 179.872 219.797 178.83 219.015C177.788 218.234 175.356 216.497 174.661 215.976C173.967 215.455 170.146 213.197 169.365 211.113C168.583 209.029 165.891 189.665 165.891 189.665H140.188H104.412Z" fill="url(#paint1_radial_240_5622)"/>
<path d="M104.412 189.665C104.412 189.665 101.72 209.029 100.939 211.113C100.157 213.197 96.3366 215.455 95.6419 215.976C94.9471 216.497 92.5158 218.234 91.4738 219.015C90.4319 219.797 89.1455 220.697 89.6503 221.707C90.0845 222.576 92.8632 222.691 94.2526 222.662H140.188H176.051C177.44 222.691 180.219 222.576 180.653 221.707C181.158 220.697 179.872 219.797 178.83 219.015C177.788 218.234 175.356 216.497 174.661 215.976C173.967 215.455 170.146 213.197 169.365 211.113C168.583 209.029 165.891 189.665 165.891 189.665H140.188H104.412Z" fill="url(#paint2_linear_240_5622)"/>
<path d="M104.412 189.665C104.412 189.665 101.72 209.029 100.939 211.113C100.157 213.197 96.3366 215.455 95.6419 215.976C94.9471 216.497 92.5158 218.234 91.4738 219.015C90.4319 219.797 89.1455 220.697 89.6503 221.707C90.0845 222.576 92.8632 222.691 94.2526 222.662H140.188H176.051C177.44 222.691 180.219 222.576 180.653 221.707C181.158 220.697 179.872 219.797 178.83 219.015C177.788 218.234 175.356 216.497 174.661 215.976C173.967 215.455 170.146 213.197 169.365 211.113C168.583 209.029 165.891 189.665 165.891 189.665H140.188H104.412Z" fill="url(#paint3_linear_240_5622)"/>
<rect x="9.21839" y="10.762" width="251.868" height="142.109" stroke="#E1E1E1" stroke-width="0.300059"/>
<mask id="mask0_240_5622" style="mask-type:alpha" maskUnits="userSpaceOnUse" x="9" y="11" width="252" height="142">
<rect x="9.58887" y="11.133" width="251.126" height="141.367" fill="#F5F5F5"/>
</mask>
<g mask="url(#mask0_240_5622)">
<rect x="9.62305" y="11.133" width="251.126" height="141.367" fill="#F5F5F5"/>
<mask id="mask1_240_5622" style="mask-type:alpha" maskUnits="userSpaceOnUse" x="9" y="10" width="253" height="143">
<rect x="9.12598" y="10.612" width="252.11" height="141.888" fill="#F5F5F5"/>
</mask>
<g mask="url(#mask1_240_5622)">
<rect x="9.15527" y="10.612" width="252.081" height="142.496" fill="white"/>
<g clip-path="url(#clip0_240_5622)">
<path d="M172.691 97.5234C179.281 97.5234 184.624 92.1957 184.624 85.6237C184.624 79.0517 179.281 73.724 172.691 73.724C166.101 73.724 160.759 79.0517 160.759 85.6237C160.759 92.1957 166.101 97.5234 172.691 97.5234Z" fill="#888888"/>
<path d="M172.691 92.6419C176.58 92.6419 179.728 89.5026 179.728 85.6237C179.728 81.7448 176.58 78.6055 172.691 78.6055C168.801 78.6055 165.653 81.7448 165.653 85.6237C165.653 89.5026 168.801 92.6419 172.691 92.6419Z" fill="white"/>
<path d="M147.392 97.5234C153.982 97.5234 159.325 92.1957 159.325 85.6237C159.325 79.0517 153.982 73.724 147.392 73.724C140.802 73.724 135.46 79.0517 135.46 85.6237C135.46 92.1957 140.802 97.5234 147.392 97.5234Z" fill="#888888"/>
<path d="M147.392 92.6419C151.282 92.6419 154.429 89.5026 154.429 85.6237C154.429 81.7448 151.282 78.6055 147.392 78.6055C143.502 78.6055 140.354 81.7448 140.354 85.6237C140.354 89.5026 143.502 92.6419 147.392 92.6419Z" fill="white"/>
<path d="M134.356 85.5251V85.6237C134.356 92.1981 129.016 97.5234 122.424 97.5234C115.831 97.5234 110.491 92.1981 110.491 85.6237C110.491 79.0493 115.831 73.724 122.424 73.724C125.127 73.724 127.615 74.628 129.626 76.1236V68.5302C129.625 68.219 129.685 67.9107 129.804 67.6229C129.923 67.3352 130.097 67.0737 130.318 66.8537C130.539 66.6337 130.801 66.4594 131.089 66.3409C131.378 66.2224 131.687 66.1621 131.999 66.1634C133.301 66.1634 134.373 67.2317 134.373 68.5302V85.41C134.373 85.4429 134.373 85.4922 134.356 85.5251Z" fill="#888888"/>
<path d="M122.422 92.6419C126.309 92.6419 129.46 89.4997 129.46 85.6237C129.46 81.7477 126.309 78.6055 122.422 78.6055C118.536 78.6055 115.385 81.7477 115.385 85.6237C115.385 89.4997 118.536 92.6419 122.422 92.6419Z" fill="white"/>
<path d="M97.6844 97.4905C104.274 97.4905 109.617 92.1629 109.617 85.5908C109.617 79.0188 104.274 73.6911 97.6844 73.6911C91.0943 73.6911 85.752 79.0188 85.752 85.5908C85.752 92.1629 91.0943 97.4905 97.6844 97.4905Z" fill="#9C5789"/>
<path d="M97.5697 92.6583C101.456 92.6583 104.607 89.5162 104.607 85.6402C104.607 81.7641 101.456 78.622 97.5697 78.622C93.683 78.622 90.5322 81.7641 90.5322 85.6402C90.5322 89.5162 93.683 92.6583 97.5697 92.6583Z" fill="white"/>
</g>
</g>
</g>
<defs>
<filter id="filter0_d_240_5622" x="31.248" y="211.844" width="207.81" height="11.563" filterUnits="userSpaceOnUse" color-interpolation-filters="sRGB">
<feFlood flood-opacity="0" result="BackgroundImageFix"/>
<feColorMatrix in="SourceAlpha" type="matrix" values="0 0 0 0 0 0 0 0 0 0 0 0 0 0 0 0 0 0 127 0" result="hardAlpha"/>
<feOffset/>
<feGaussianBlur stdDeviation="2.5"/>
<feColorMatrix type="matrix" values="0 0 0 0 0.7625 0 0 0 0 0.752969 0 0 0 0 0.752969 0 0 0 0.46 0"/>
<feBlend mode="normal" in2="BackgroundImageFix" result="effect1_dropShadow_240_5622"/>
<feBlend mode="normal" in="SourceGraphic" in2="effect1_dropShadow_240_5622" result="shape"/>
</filter>
<filter id="filter1_d_240_5622" x="88.8573" y="220.031" width="92.6086" height="4.65019" filterUnits="userSpaceOnUse" color-interpolation-filters="sRGB">
<feFlood flood-opacity="0" result="BackgroundImageFix"/>
<feColorMatrix in="SourceAlpha" type="matrix" values="0 0 0 0 0 0 0 0 0 0 0 0 0 0 0 0 0 0 127 0" result="hardAlpha"/>
<feOffset dy="0.300059"/>
<feGaussianBlur stdDeviation="0.250049"/>
<feColorMatrix type="matrix" values="0 0 0 0 0 0 0 0 0 0 0 0 0 0 0 0 0 0 0.38 0"/>
<feBlend mode="normal" in2="BackgroundImageFix" result="effect1_dropShadow_240_5622"/>
<feBlend mode="normal" in="SourceGraphic" in2="effect1_dropShadow_240_5622" result="shape"/>
</filter>
<linearGradient id="paint0_linear_240_5622" x1="135.152" y1="222.662" x2="135.152" y2="224.138" gradientUnits="userSpaceOnUse">
<stop offset="0.474551" stop-color="#D4D4D4"/>
<stop offset="1" stop-color="#B4B4B4"/>
</linearGradient>
<radialGradient id="paint1_radial_240_5622" cx="0" cy="0" r="1" gradientUnits="userSpaceOnUse" gradientTransform="translate(135.152 215.108) rotate(90) scale(23.619 156.529)">
<stop stop-color="#DBDBDB"/>
<stop offset="1" stop-color="white" stop-opacity="0"/>
</radialGradient>
<linearGradient id="paint2_linear_240_5622" x1="135.152" y1="189.665" x2="135.152" y2="222.666" gradientUnits="userSpaceOnUse">
<stop stop-color="white" stop-opacity="0"/>
<stop offset="0.541436" stop-color="white"/>
<stop offset="1" stop-color="white" stop-opacity="0"/>
</linearGradient>
<linearGradient id="paint3_linear_240_5622" x1="135.152" y1="189.665" x2="135.152" y2="212.763" gradientUnits="userSpaceOnUse">
<stop stop-color="#D7D7D7"/>
<stop offset="1" stop-color="white" stop-opacity="0"/>
</linearGradient>
<clipPath id="clip0_240_5622">
<rect width="98.8874" height="31.3928" fill="white" transform="translate(85.752 66.1635)"/>
</clipPath>
</defs>
</svg>
